<svg width="1920" height="731" viewBox="0 0 1920 731" fill="none" xmlns="http://www.w3.org/2000/svg">
<path d="M231.991 32.9001C199.924 37.3007 129.444 41.0679 98.2125 42.4015C76.3134 44.3884 21.6197 44.2372 -3.49896 43.9083V731H1920V48.4022C1892.74 47.6021 1830.81 40.0677 1803.26 36.4005C1769.19 30.7997 1707.89 27.3992 1681.5 26.399C1655.45 25.1989 1538.04 23.2319 1482.59 22.3985C1472.57 16.3976 1441.34 10.2301 1426.97 7.89639C1385.69 -2.5051 1325.93 -0.438135 1301.21 1.89553C1283.98 5.89611 1243.59 12.5637 1225.56 15.3975C1207.52 16.9977 1119.84 20.7316 1078.25 22.3985C1043.38 23.5986 872.99 15.2308 792.155 10.8969C732.03 4.89605 695.955 7.06303 685.433 8.89662C663.788 12.8972 611.947 16.8978 588.732 18.398C548.649 22.3986 506.895 21.7318 491.029 20.8984C460.566 17.6979 392.491 19.5649 362.261 20.8984C315.364 23.2987 255.874 29.8997 231.991 32.9001Z" fill="#1F201B"/>
</svg>
