<svg width="15" height="18" viewBox="0 0 15 18" fill="none" xmlns="http://www.w3.org/2000/svg">
<path d="M8.2499 17.25L8.2499 2.28787L13.7068 8.01713C13.9926 8.31713 14.4673 8.32875 14.7673 8.043C15.0669 7.75763 15.0789 7.28288 14.7932 6.9825L8.56077 0.4395C8.27727 0.156375 7.90078 -3.10317e-07 7.49991 -3.27839e-07C7.09941 -3.45346e-07 6.72254 0.156375 6.42667 0.452625L0.206997 6.98287C0.0686232 7.128 6.33969e-07 7.314 6.25839e-07 7.5C6.17184e-07 7.698 0.0779988 7.896 0.232872 8.04337C0.532868 8.32912 1.00724 8.3175 1.29298 8.0175L6.74992 2.26425L6.74992 17.25C6.74992 17.664 7.08591 18 7.49991 18C7.9139 18 8.2499 17.664 8.2499 17.25Z" fill="white"/>
</svg>
