<svg width="15" height="18" viewBox="0 0 15 18" fill="none" xmlns="http://www.w3.org/2000/svg">
<path d="M8.2499 0.75L8.2499 15.7121L13.7068 9.98287C13.9926 9.68287 14.4673 9.67125 14.7673 9.957C15.0669 10.2424 15.0789 10.7171 14.7932 11.0175L8.56077 17.5605C8.27727 17.8436 7.90078 18 7.49991 18C7.09941 18 6.72254 17.8436 6.42667 17.5474L0.206997 11.0171C0.0686232 10.872 6.33969e-07 10.686 6.25839e-07 10.5C6.17184e-07 10.302 0.0779988 10.104 0.232872 9.95663C0.532868 9.67088 1.00724 9.6825 1.29298 9.9825L6.74992 15.7358L6.74992 0.75C6.74992 0.336001 7.08591 3.45936e-07 7.49991 3.27839e-07C7.9139 3.09743e-07 8.2499 0.336001 8.2499 0.75Z" fill="white"/>
</svg>
