<svg width="18" height="15" viewBox="0 0 18 15" fill="none" xmlns="http://www.w3.org/2000/svg">
<path d="M0.75 6.7501L15.7121 6.7501L9.98287 1.29317C9.68287 1.00742 9.67125 0.532677 9.957 0.23268C10.2424 -0.066941 10.7171 -0.0789409 11.0175 0.206806L17.5605 6.43923C17.8436 6.72273 18 7.09922 18 7.50009C18 7.90059 17.8436 8.27746 17.5474 8.57333L11.0171 14.793C10.872 14.9314 10.686 15 10.5 15C10.302 15 10.104 14.922 9.95663 14.7671C9.67088 14.4671 9.6825 13.9928 9.9825 13.707L15.7358 8.25008L0.75 8.25008C0.336001 8.25008 3.45936e-07 7.91409 3.27839e-07 7.50009C3.09743e-07 7.0861 0.336001 6.7501 0.75 6.7501Z" fill="white"/>
</svg>
