<svg width="29" height="27" viewBox="0 0 29 27" fill="none" xmlns="http://www.w3.org/2000/svg">
<path d="M2 2H9.66667C11.0222 2 12.3222 2.53849 13.2808 3.49701C14.2393 4.45553 14.7778 5.75556 14.7778 7.11111V25C14.7778 23.9833 14.3739 23.0083 13.655 22.2894C12.9361 21.5705 11.9611 21.1667 10.9444 21.1667H2V2Z" stroke="black" stroke-width="2.55556" stroke-linecap="round" stroke-linejoin="round"/>
<path d="M27.5555 2H19.8889C18.5333 2 17.2333 2.53849 16.2748 3.49701C15.3163 4.45553 14.7778 5.75556 14.7778 7.11111V25C14.7778 23.9833 15.1816 23.0083 15.9005 22.2894C16.6194 21.5705 17.5944 21.1667 18.6111 21.1667H27.5555V2Z" stroke="black" stroke-width="2.55556" stroke-linecap="round" stroke-linejoin="round"/>
</svg>
