<svg width="20" height="23" viewBox="0 0 20 23" fill="none" xmlns="http://www.w3.org/2000/svg">
<path d="M1 5.99219L4 1.99219H16L19 5.99219M1 5.99219V19.9922C1 20.5226 1.21071 21.0313 1.58579 21.4064C1.96086 21.7815 2.46957 21.9922 3 21.9922H17C17.5304 21.9922 18.0391 21.7815 18.4142 21.4064C18.7893 21.0313 19 20.5226 19 19.9922V5.99219M1 5.99219H19M14 9.99219C14 11.0531 13.5786 12.0705 12.8284 12.8206C12.0783 13.5708 11.0609 13.9922 10 13.9922C8.93913 13.9922 7.92172 13.5708 7.17157 12.8206C6.42143 12.0705 6 11.0531 6 9.99219" stroke="white" stroke-width="2" stroke-linecap="round" stroke-linejoin="round"/>
</svg>
