<svg width="19" height="19" viewBox="0 0 19 19" fill="none" xmlns="http://www.w3.org/2000/svg">
<path d="M17.0437 0.855484C16.7184 0.674508 16.3607 0.559419 15.991 0.516798C15.6212 0.474177 15.2467 0.50486 14.8888 0.607092C14.5309 0.709324 14.1967 0.881101 13.9053 1.1126C13.6138 1.3441 13.3709 1.63077 13.1903 1.95623L7.93025 11.4224L4.91984 8.41198C4.65847 8.14137 4.34583 7.92552 4.00015 7.77703C3.65447 7.62854 3.28268 7.55038 2.90648 7.54711C2.53027 7.54384 2.15718 7.61553 1.80897 7.75799C1.46076 7.90045 1.14442 8.11084 0.878387 8.37687C0.612358 8.64289 0.401974 8.95924 0.259512 9.30745C0.117049 9.65565 0.0453608 10.0287 0.0486299 10.405C0.0518991 10.7812 0.13006 11.153 0.278552 11.4986C0.427045 11.8443 0.642894 12.157 0.913506 12.4183L6.58017 18.085C7.11567 18.6219 7.83817 18.9166 8.58334 18.9166L8.97576 18.8882C9.41004 18.8275 9.82429 18.6668 10.1859 18.4187C10.5475 18.1707 10.8466 17.8421 11.0597 17.4588L18.143 4.70882C18.3238 4.38362 18.4389 4.02599 18.4815 3.65635C18.5241 3.2867 18.4935 2.91228 18.3914 2.55446C18.2893 2.19664 18.1178 1.86243 17.8865 1.57092C17.6553 1.27941 17.3689 1.0363 17.0437 0.855484Z" fill="#FFC600"/>
</svg>
