<svg width="96" height="96" viewBox="0 0 96 96" fill="none" xmlns="http://www.w3.org/2000/svg">
<path d="M49.2723 59.4763C48.9136 58.7203 48.0093 58.3978 47.2531 58.7569C46.0227 59.3407 44.7327 59.8234 43.4191 60.1909C42.8695 60.3446 42.4531 60.7937 42.3413 61.3534L40.7378 69.3705C40.5796 70.1621 39.8787 70.7368 39.0713 70.7368H34.6971C33.8898 70.7368 33.1891 70.1623 33.0306 69.3705L31.4271 61.3534C31.3152 60.7937 30.8986 60.3446 30.3494 60.1909C28.4935 59.6715 26.7025 58.9294 25.0261 57.9851C24.5286 57.705 23.916 57.7281 23.4413 58.0446L16.6377 62.5802C15.966 63.0279 15.0642 62.9385 14.493 62.3677L11.4 59.2746C10.8291 58.7036 10.74 57.8018 11.1876 57.1299L15.7232 50.3263C16.0399 49.8514 16.063 49.239 15.7827 48.7416C14.8382 47.0649 14.0961 45.2738 13.5769 43.4183C13.4232 42.8687 12.9741 42.4522 12.4144 42.3405L4.39726 40.737C3.60563 40.5788 3.03094 39.8779 3.03094 39.0705V34.6963C3.03094 33.8889 3.60544 33.1882 4.39726 33.0298L12.4144 31.4263C12.9741 31.3144 13.4232 30.8977 13.5769 30.3486C14.0963 28.4927 14.8384 26.7017 15.7827 25.0252C16.0628 24.528 16.0397 23.9154 15.7232 23.4405L11.188 16.6376C10.7402 15.9658 10.8295 15.0641 11.4004 14.493L14.4934 11.4C15.0643 10.8291 15.9664 10.74 16.638 11.1876L23.4417 15.7232C23.9164 16.0399 24.5292 16.0627 25.0264 15.7826C26.7029 14.8384 28.4939 14.0963 30.3497 13.5769C30.8993 13.4231 31.3158 12.9741 31.4275 12.4144L33.031 4.39725C33.1893 3.60562 33.8901 3.03094 34.6975 3.03094H39.0717C39.8791 3.03094 40.5798 3.60544 40.7382 4.39725L42.3417 12.4144C42.4536 12.9741 42.8703 13.4231 43.4195 13.5769C45.2753 14.0963 47.0663 14.8384 48.7428 15.7826C49.2402 16.0627 49.8528 16.0397 50.3275 15.7232L57.1312 11.1876C57.8028 10.7398 58.7045 10.8293 59.2758 11.4L62.3688 14.493C62.9398 15.0639 63.0288 15.9658 62.5812 16.6376L58.0456 23.4412C57.7289 23.9162 57.7059 24.5286 57.9862 25.026C58.9304 26.7024 59.6726 28.4934 60.1919 30.3493C60.3457 30.8989 60.7947 31.3153 61.3544 31.4271L69.3716 33.0306C70.1632 33.1888 70.7379 33.8897 70.7379 34.6971V39.0713C70.7379 39.8786 70.1634 40.5793 69.3716 40.7378L61.3544 42.3413C60.7947 42.4532 60.3457 42.8698 60.1919 43.4194C59.8152 44.7656 59.3182 46.0862 58.7144 47.3445C58.3522 48.0992 58.6706 49.0046 59.4252 49.3667C60.1799 49.7291 61.0856 49.4106 61.4474 48.6559C61.9923 47.5202 62.4601 46.3395 62.8428 45.1352L69.9661 43.7106C72.1691 43.2696 73.7685 41.3184 73.7685 39.0711V34.6969C73.7685 32.4495 72.1691 30.4986 69.9652 30.0576L62.8421 28.6329C62.3748 27.1622 61.7827 25.7323 61.0732 24.3638L65.1029 18.3189C66.3494 16.449 66.101 13.9384 64.5118 12.3491L61.4187 9.25613C59.8293 7.66688 57.3187 7.41863 55.4489 8.66494L49.4041 12.6947C48.0355 11.9854 46.6057 11.3931 45.1349 10.9258L43.7103 3.80269C43.2698 1.59938 41.3187 0 39.0713 0H34.6971C32.4498 0 30.4988 1.59938 30.0578 3.80325L28.6332 10.9264C27.1624 11.3936 25.7325 11.9858 24.364 12.6952L18.3195 8.6655C16.4498 7.419 13.939 7.66725 12.3497 9.25669L9.25671 12.3497C7.66764 13.9389 7.41901 16.4494 8.66552 18.3195L12.6953 24.3643C11.986 25.7329 11.3936 27.1626 10.9264 28.6335L3.80307 30.0581C1.59938 30.4987 0 32.4499 0 34.6973V39.0714C0 41.3188 1.59938 43.2697 3.80326 43.7107L10.9264 45.1354C11.3935 46.6059 11.9858 48.0358 12.6953 49.4046L8.66552 55.4494C7.41901 57.3193 7.66745 59.8299 9.25671 61.4192L12.3497 64.5122C13.939 66.1014 16.4496 66.3497 18.3195 65.1034L24.3644 61.0736C25.7329 61.7829 27.1626 62.3753 28.6336 62.8425L30.0582 69.966C30.4988 72.1691 32.4499 73.7687 34.6973 73.7687H39.0715C41.3189 73.7687 43.2698 72.1693 43.7108 69.9654L45.1355 62.8423C46.3034 62.4712 47.4498 62.0199 48.5532 61.4961C49.3094 61.1368 49.6315 60.2327 49.2723 59.4763Z" fill="white"/>
<path d="M50.0137 45.3067C50.2349 45.4204 50.4712 45.4742 50.704 45.4742C51.2545 45.4742 51.7857 45.1732 52.054 44.6497C53.2765 42.2657 53.9229 39.5805 53.9229 36.8844C53.9229 27.4894 46.2794 19.8458 36.8841 19.8458C32.4145 19.8458 28.1909 21.5636 24.991 24.6834C24.3916 25.2677 24.3794 26.2275 24.9636 26.8268C25.5479 27.426 26.5075 27.4386 27.1069 26.8541C29.7374 24.2899 33.2095 22.8774 36.8838 22.8774C44.6073 22.8774 50.891 29.1609 50.891 36.8846C50.891 39.1335 50.3746 41.2808 49.3563 43.2668C48.9745 44.0111 49.2687 44.9246 50.0137 45.3067Z" fill="white"/>
<path d="M22.6956 30.3984C21.9038 30.126 21.0417 30.5469 20.7692 31.3386C20.1567 33.1194 19.846 34.9854 19.846 36.8843C19.846 46.2795 27.4896 53.9229 36.8847 53.9229C40.498 53.9229 43.9503 52.8062 46.8685 50.6929C47.5465 50.2018 47.6982 49.254 47.2073 48.576C46.7165 47.898 45.7685 47.7463 45.0905 48.2372C42.6927 49.9733 39.8553 50.8911 36.8845 50.8911C29.1608 50.8911 22.8773 44.6074 22.8773 36.8839C22.8773 35.3213 23.1323 33.7869 23.6355 32.3242C23.9078 31.5328 23.487 30.6705 22.6956 30.3984Z" fill="white"/>
<path d="M93.0831 66.2467L88.6999 65.3702C88.4329 64.5757 88.1113 63.8001 87.7385 63.0503L90.2184 59.3306C91.1745 57.8962 90.984 55.9706 89.7651 54.7519L87.7326 52.7194C86.5136 51.5006 84.588 51.3099 83.1538 52.266L79.4342 54.7459C78.6843 54.3731 77.9087 54.0516 77.1142 53.7847L76.2377 49.4016C75.8996 47.7113 74.4031 46.4844 72.6795 46.4844H69.8049C68.0814 46.4844 66.5848 47.7113 66.2467 49.4016L65.3701 53.7847C64.5757 54.0517 63.8 54.3733 63.0502 54.7459L59.3306 52.266C57.8962 51.3101 55.9706 51.5004 54.7518 52.7194L52.7193 54.7519C51.5004 55.9708 51.3099 57.8964 52.2659 59.3306L54.7458 63.0503C54.2332 64.0811 53.8179 65.1608 53.5074 66.2709C53.2818 67.0772 53.7526 67.9134 54.5587 68.1392C55.3649 68.3647 56.2012 67.8941 56.4269 67.0879C56.7569 65.9081 57.2287 64.77 57.8287 63.7048C58.1088 63.2074 58.0857 62.5948 57.7692 62.1201L54.7885 57.6491C54.6312 57.4131 54.6625 57.0962 54.8632 56.8956L56.8957 54.8631C57.0963 54.6626 57.4132 54.6315 57.6492 54.7884L62.1202 57.7691C62.5949 58.0858 63.2075 58.1087 63.7049 57.8286C64.7703 57.2286 65.9083 56.7568 67.088 56.4268C67.6376 56.2731 68.054 55.824 68.1658 55.2643L69.2193 49.9961C69.2748 49.7181 69.5212 49.5161 69.8049 49.5161H72.6795C72.963 49.5161 73.2093 49.7181 73.265 49.9961L74.3186 55.2647C74.4305 55.8244 74.8472 56.2734 75.3963 56.4272C76.5761 56.7572 77.7142 57.2289 78.7794 57.8289C79.2767 58.1091 79.8894 58.086 80.3642 57.7695L84.8351 54.7888C85.0712 54.6315 85.388 54.6626 85.5887 54.8634L87.6212 56.8959C87.8216 57.0966 87.8529 57.4134 87.6958 57.6495L84.7151 62.1204C84.3984 62.5954 84.3754 63.2077 84.6557 63.7052C85.2557 64.7706 85.7274 65.9085 86.0574 67.0882C86.2112 67.6378 86.6602 68.0543 87.2199 68.166L92.4881 69.2196C92.7662 69.2751 92.9681 69.5214 92.9681 69.8051V72.6797C92.9681 72.9632 92.7662 73.2096 92.4881 73.2652L87.2196 74.3188C86.6599 74.4307 86.2108 74.8474 86.057 75.3966C85.727 76.5763 85.2553 77.7144 84.6553 78.7796C84.3752 79.2771 84.3982 79.8896 84.7147 80.3644L87.6954 84.8353C87.8527 85.0714 87.8214 85.3883 87.6208 85.5889L85.5883 87.6214C85.3879 87.822 85.071 87.8531 84.8347 87.696L80.3638 84.7153C79.889 84.3988 79.2763 84.3757 78.779 84.6559C77.7137 85.2559 76.5757 85.7276 75.396 86.0576C74.8464 86.2114 74.43 86.6604 74.3182 87.2201L73.2646 92.4883C73.2091 92.7664 72.9628 92.9683 72.6791 92.9683H69.8045C69.521 92.9683 69.2746 92.7664 69.2189 92.4883L68.1654 87.2197C68.0535 86.6601 67.6368 86.211 67.0876 86.0573C65.9079 85.7272 64.7698 85.2555 63.7046 84.6555C63.2071 84.3754 62.5944 84.3984 62.1198 84.7149L57.6489 87.6956C57.4128 87.8529 57.0959 87.8218 56.8953 87.621L54.8628 85.5885C54.6624 85.3879 54.631 85.071 54.7882 84.8349L57.7689 80.364C58.0856 79.8891 58.1086 79.2767 57.8283 78.7793C57.2283 77.7139 56.7566 76.5759 56.4266 75.3962C56.2728 74.8466 55.8237 74.4302 55.264 74.3184L49.9959 73.2649C49.7178 73.2094 49.5159 72.963 49.5159 72.6793V69.8047C49.5159 69.5212 49.7178 69.2749 49.9959 69.2192L50.3184 69.1547C51.1392 68.9904 51.6717 68.1919 51.5073 67.371C51.343 66.5501 50.5454 66.0186 49.7234 66.1821L49.4009 66.2466C47.711 66.5848 46.4842 68.0813 46.4842 69.8049V72.6795C46.4842 74.403 47.711 75.8996 49.4013 76.2377L53.7845 77.1143C54.0515 77.9087 54.373 78.6844 54.7456 79.4342L52.2657 83.1538C51.3095 84.5882 51.5002 86.5138 52.7191 87.7326L54.7516 89.7651C55.9705 90.984 57.8962 91.1745 59.3304 90.2184L63.05 87.7386C63.7998 88.1113 64.5755 88.4329 65.3699 88.6997L66.2465 93.0829C66.5849 94.7732 68.0814 96 69.8051 96H72.6796C74.4031 96 75.8998 94.7732 76.2378 93.0829L77.1144 88.6997C77.9088 88.4327 78.6845 88.1111 79.4343 87.7384L83.154 90.2182C84.5884 91.1743 86.514 90.9838 87.7327 89.7649L89.7652 87.7324C90.9842 86.5134 91.1747 84.5878 90.2186 83.1536L87.7387 79.434C88.1115 78.6842 88.4331 77.9085 88.6999 77.1141L93.0831 76.2375C94.7732 75.8994 96 74.403 96 72.6793V69.8047C96.0002 68.0812 94.7734 66.5848 93.0831 66.2467Z" fill="white"/>
<path d="M71.2423 65.7853C74.2513 65.7853 76.6991 68.2331 76.6991 71.2421C76.6991 72.0793 77.3778 72.7579 78.2148 72.7579C79.0518 72.7579 79.7306 72.0791 79.7306 71.2421C79.7306 66.5616 75.9227 62.7536 71.2421 62.7536C66.5615 62.7536 62.7536 66.5616 62.7536 71.2421C62.7536 75.9227 66.5615 79.7306 71.2421 79.7306C73.1379 79.7306 74.9311 79.1192 76.4282 77.9627C77.0906 77.4508 77.2127 76.4989 76.701 75.8363C76.1891 75.1738 75.237 75.0516 74.5745 75.5634C73.613 76.3061 72.4606 76.6989 71.2421 76.6989C68.2331 76.6989 65.7853 74.2511 65.7853 71.2421C65.7854 68.2329 68.2333 65.7853 71.2423 65.7853Z" fill="white"/>
<path d="M46.1193 36.8843C46.1193 31.7921 41.9763 27.6493 36.8843 27.6493C31.7922 27.6493 27.6494 31.7923 27.6494 36.8843C27.6494 41.9764 31.7922 46.1192 36.8843 46.1192C41.9765 46.1192 46.1193 41.9762 46.1193 36.8843ZM30.6809 36.8843C30.6809 33.4639 33.4639 30.6808 36.8843 30.6808C40.3047 30.6808 43.0878 33.4639 43.0878 36.8843C43.0878 40.3046 40.3049 43.0877 36.8843 43.0877C33.4636 43.0877 30.6809 40.3046 30.6809 36.8843Z" fill="white"/>
</svg>
