<svg width="79" height="95" viewBox="0 0 79 95" fill="none" xmlns="http://www.w3.org/2000/svg">
<path d="M16.1041 90.725C23.7934 92.4033 31.6312 93.3051 39.5 93.4167C47.3688 93.3051 55.2066 92.4033 62.8959 90.725C66.2306 93.3778 70.3329 94.8776 74.5891 95C76.4631 94.9758 78.0875 93.6942 78.5505 91.8745C79.8352 88.1204 78.2866 81.4403 74.4263 77.8208C76.2111 67.8074 77.2133 57.6697 77.4239 47.5C77.2154 37.3305 76.2153 27.1928 74.4326 17.1792C78.293 13.5597 79.8415 6.8875 78.5568 3.1255C78.0938 1.30581 76.4694 0.0241511 74.5954 0C70.3392 0.122409 66.237 1.62218 62.9022 4.275C55.2109 2.59624 47.3709 1.6945 39.5 1.58333C31.6312 1.69493 23.7934 2.59666 16.1041 4.275C12.7677 1.6209 8.66297 0.121051 4.40462 0C2.53063 0.0241511 0.906177 1.30581 0.443156 3.1255C-0.841515 6.87958 0.707043 13.5597 4.56738 17.1792C2.7847 27.1928 1.78458 37.3305 1.57613 47.5C1.78458 57.6695 2.7847 67.8072 4.56738 77.8208C0.707043 81.4403 -0.841515 88.1204 0.443156 91.8745C0.906177 93.6942 2.53063 94.9758 4.40462 95C8.66297 94.879 12.7677 93.3791 16.1041 90.725ZM3.43282 90.8438C2.86562 87.7364 3.52876 84.5299 5.28161 81.9043C5.38116 82.4426 5.47597 82.9572 5.56762 83.4433C5.66407 84.0071 6.05652 84.4749 6.59422 84.6671C7.13192 84.8592 7.73126 84.7458 8.16202 84.3705C8.59278 83.9951 8.78798 83.4161 8.67264 82.8558C6.36583 71.2032 5.04906 59.3756 4.73645 47.5C5.04879 35.6229 6.36557 23.7936 8.67264 12.1394C8.80237 11.2946 8.2395 10.4991 7.40096 10.3422C6.56243 10.1853 5.75095 10.7236 5.56762 11.5583C5.47597 12.0444 5.38116 12.559 5.28161 13.0973C3.52876 10.4717 2.86562 7.26519 3.43282 4.15783C3.7694 3.16667 4.1992 3.16667 4.40462 3.16667C7.03273 3.26853 9.60256 3.97268 11.9167 5.225L11.4427 5.34058C10.618 5.56901 10.1245 6.41367 10.3295 7.24604C10.5345 8.07841 11.3635 8.59608 12.1996 8.41383C21.1306 6.15405 30.2902 4.92479 39.5 4.75C48.71 4.92259 57.8702 6.14973 66.802 8.4075C67.6381 8.58974 68.467 8.07208 68.6721 7.23971C68.8771 6.40733 68.3836 5.56267 67.5589 5.33425L67.0849 5.21867C69.3991 3.96878 71.9683 3.26682 74.5954 3.16667C74.8008 3.16667 75.2274 3.16667 75.5672 4.1515C76.1344 7.25885 75.4712 10.4654 73.7184 13.091C73.6188 12.5527 73.524 12.0381 73.4324 11.552C73.3359 10.9882 72.9435 10.5204 72.4058 10.3282C71.8681 10.136 71.2687 10.2494 70.838 10.6248C70.4072 11.0002 70.212 11.5792 70.3274 12.1394C72.6344 23.7936 73.9512 35.6229 74.2635 47.5C73.9512 59.3771 72.6344 71.2064 70.3274 82.8606C70.212 83.4208 70.4072 83.9998 70.838 84.3752C71.2687 84.7506 71.8681 84.864 72.4058 84.6718C72.9435 84.4796 73.3359 84.0118 73.4324 83.448C73.524 82.9619 73.6188 82.4473 73.7184 81.909C75.4712 84.5346 76.1344 87.7411 75.5672 90.8485C75.2306 91.8333 74.8008 91.8333 74.5954 91.8333C71.9673 91.7315 69.3974 91.0273 67.0833 89.775L67.5573 89.6594C68.382 89.431 68.8755 88.5863 68.6705 87.754C68.4655 86.9216 67.6365 86.4039 66.8004 86.5862C57.8694 88.846 48.7098 90.0752 39.5 90.25C30.29 90.0774 21.1298 88.8503 12.198 86.5925C11.6438 86.439 11.0501 86.5993 10.6478 87.011C10.2456 87.4227 10.0983 88.0208 10.2632 88.5727C10.4281 89.1247 10.8792 89.5433 11.4411 89.6658L11.9151 89.7813C9.60093 91.0312 7.03169 91.7332 4.40462 91.8333C4.1992 91.8333 3.7694 91.8333 3.43282 90.8485V90.8438Z" fill="white"/>
<path d="M15.7976 47.5C15.7976 60.6168 26.4095 71.25 39.5 71.25C52.5905 71.25 63.2024 60.6168 63.2024 47.5C63.2024 34.3832 52.5905 23.75 39.5 23.75C26.4157 23.7648 15.8124 34.3894 15.7976 47.5ZM39.5 68.0833C33.9678 68.0839 28.6709 65.8411 24.8156 61.8656C25.7107 60.7871 27.0389 60.1643 28.4389 60.1667C29.5063 60.1696 30.5398 60.5427 31.3637 61.2228C31.7409 61.5288 32.2375 61.6442 32.7107 61.5357C33.1838 61.4273 33.5809 61.107 33.7877 60.667C34.7432 58.6371 36.6939 57.2604 38.9232 57.0428C38.7043 57.8903 38.4152 58.7181 38.0589 59.5175C37.819 60.0348 37.8753 60.6413 38.2063 61.1054C38.5373 61.5694 39.0919 61.8192 39.6579 61.7593C40.224 61.6993 40.7142 61.3389 40.9411 60.8158C41.4114 59.7661 41.7864 58.6761 42.0614 57.5589C43.4466 58.1873 44.5635 59.289 45.2123 60.667C45.4191 61.107 45.8162 61.4273 46.2893 61.5357C46.7625 61.6442 47.2591 61.5288 47.6362 61.2228C48.4602 60.5427 49.4937 60.1696 50.5611 60.1667C51.9611 60.1643 53.2892 60.7871 54.1844 61.8656C50.3291 65.8411 45.0322 68.0839 39.5 68.0833ZM40.6425 42.3415C40.5378 40.6792 41.0901 39.0423 42.18 37.7847C43.7127 36.4499 46.5918 36.7872 47.7737 36.993C47.8231 37.0191 47.8596 37.0643 47.8749 37.1181C47.9175 38.3119 47.8511 41.2347 46.3484 42.5489C44.8457 43.8631 41.9682 43.5401 40.8905 43.3612L40.6425 42.3415ZM37.8219 44.1164C36.7995 44.8669 34.4735 46.341 32.6073 45.8834C30.8094 45.1073 29.4156 43.6155 28.7612 41.7668C28.7485 41.7031 28.7615 41.637 28.7976 41.5831C30.1017 40.5164 31.6839 39.8471 33.3563 39.6546C33.6156 39.6533 33.8741 39.6841 34.1259 39.7464C35.657 40.3762 36.8884 41.5709 37.5659 43.0841L37.8219 44.1164ZM60.0421 47.5C60.0427 51.7704 58.7082 55.9337 56.226 59.4051C54.7427 57.8648 52.6973 56.9964 50.5611 57C49.3861 57.0032 48.2271 57.2739 47.1717 57.7917C46.0273 56.2112 44.4285 55.0185 42.5892 54.3733C42.7941 51.7828 42.5693 49.1761 41.924 46.6593C42.24 46.6814 42.556 46.7099 42.8973 46.7099C44.8931 46.8035 46.8559 46.1752 48.4279 44.9398C50.8629 42.7991 51.1142 39.0545 51.0352 37.0041C50.9576 35.4562 49.8288 34.1646 48.3078 33.8833C46.3042 33.5287 42.5718 33.25 40.1005 35.4081C39.1719 36.2641 38.4852 37.3504 38.1095 38.5573C37.224 37.6551 36.1137 37.0068 34.8938 36.6795C31.9231 35.9243 28.9098 37.5519 26.9061 39.0545C25.6713 40.0137 25.2572 41.6979 25.9059 43.1221C26.9788 45.3831 28.8829 48.2331 31.8536 48.9678C32.3527 49.0902 32.8646 49.1519 33.3785 49.1514C35.3262 49.0542 37.2068 48.407 38.8031 47.2847C39.3589 49.4245 39.5722 51.6392 39.4352 53.846C36.4152 53.8799 33.5907 55.349 31.8252 57.8043C30.7718 57.2827 29.6139 57.0077 28.4389 57C26.3027 56.9964 24.2573 57.8648 22.774 59.4051C17.6373 52.1605 17.724 42.4298 22.9888 35.2782C28.2536 28.1266 37.5063 25.1708 45.9307 27.9496C54.355 30.7283 60.0463 38.6132 60.0421 47.5Z" fill="white"/>
<path d="M12.7953 20.4931C21.3746 17.4561 30.4012 15.881 39.5 15.8333C48.5988 15.881 57.6254 17.4561 66.2047 20.4931C66.7371 20.6815 67.3293 20.5709 67.7583 20.2032C68.1873 19.8354 68.3878 19.2662 68.2845 18.7101C68.1811 18.1539 67.7895 17.6953 67.2571 17.5069C49.3108 11.0833 29.6986 11.0833 11.7524 17.5069C10.9294 17.7981 10.4979 18.7026 10.7885 19.5273C11.0791 20.3519 11.9818 20.7843 12.8048 20.4931H12.7953Z" fill="white"/>
<path d="M11.7476 77.4931C20.6567 80.6751 30.0419 82.3119 39.5 82.3333C48.9581 82.3119 58.3433 80.6751 67.2524 77.4931C68.0753 77.2019 68.5069 76.2974 68.2163 75.4727C67.9257 74.6481 67.0229 74.2157 66.2 74.5069C57.6222 77.5434 48.5973 79.1185 39.5 79.1667C30.4012 79.119 21.3746 77.5439 12.7953 74.5069C11.9723 74.2157 11.0696 74.6481 10.779 75.4727C10.4884 76.2974 10.9199 77.2019 11.7429 77.4931H11.7476Z" fill="white"/>
</svg>
