<svg width="94" height="94" viewBox="0 0 94 94" fill="none" xmlns="http://www.w3.org/2000/svg">
<path d="M62.0177 71.9393C61.4011 71.8354 60.7694 71.783 60.1398 71.783H54.1284V67.9519C57.5906 65.6434 59.8763 61.7069 59.8763 57.2454V50.3542C59.8763 47.9804 59.2238 45.6603 57.9891 43.6458L55.6359 45.0852C56.605 46.6665 57.1176 48.4888 57.1176 50.3542V51.7993L56.7551 51.1301C55.6517 49.0927 53.5261 47.8269 51.2074 47.8269H42.7919C40.4732 47.8269 38.3476 49.0927 37.2442 51.1301L36.8824 51.7993V50.3542C36.8824 44.7804 41.4208 40.2465 47 40.2465C49.6913 40.2465 52.2246 41.2907 54.1327 43.1861L56.0781 41.2311C53.6496 38.8186 50.4256 37.4897 47 37.4897C39.8996 37.4897 34.123 43.2607 34.123 50.3542V57.2454C34.123 61.7069 36.4094 65.6441 39.8716 67.9519V71.783H33.8602C27.6658 71.783 22.6264 76.8175 22.6264 83.0066V94H25.3858V83.0066C25.3858 78.3379 29.1869 74.5398 33.8602 74.5398H39.9779C40.5565 77.8896 43.4839 80.4471 47 80.4471C50.5161 80.4471 53.4436 77.8896 54.0221 74.5398H60.1398C60.6164 74.5398 61.0938 74.5792 61.5597 74.6581L62.0177 71.9393ZM51.3689 73.3256C51.3689 75.7324 49.4092 77.6903 47 77.6903C44.5908 77.6903 42.6311 75.7324 42.6311 73.3256V69.3461C43.9957 69.8395 45.4666 70.1091 47 70.1091C48.5334 70.1091 50.0043 69.8395 51.3689 69.3461V73.3256ZM47 67.3531C41.5327 67.3531 37.0676 62.9978 36.891 57.5789L39.672 52.4418C40.2923 51.2958 41.4882 50.5837 42.7919 50.5837H51.2074C52.5118 50.5837 53.7077 51.2958 54.328 52.4418L57.109 57.5782C56.9317 62.9978 52.4665 67.3531 47 67.3531Z" fill="white"/>
<path d="M65.0069 72.8889L63.8102 75.3724C66.7291 76.7759 68.6142 79.7729 68.6142 83.0066V94H71.3736V83.0066C71.3736 78.7201 68.8748 74.7492 65.0069 72.8889Z" fill="white"/>
<path d="M60.3365 87.3842H63.096V94H60.3365V87.3842Z" fill="white"/>
<path d="M30.9041 87.3842H33.6635V94H30.9041V87.3842Z" fill="white"/>
<path d="M24.4368 12.9907L21.2466 6.53407L18.0564 12.9907L10.9237 14.0263L16.0852 19.0529L14.867 26.1499L21.2466 22.7993L27.6263 26.1499L26.4081 19.0529L31.5695 14.0263L24.4368 12.9907ZM23.9616 21.1111L21.2466 19.6847L18.5317 21.1111L19.05 18.0904L16.8533 15.9511L19.8891 15.5108L21.2466 12.7626L22.6041 15.5108L25.64 15.9511L23.4433 18.0904L23.9616 21.1111Z" fill="white"/>
<path d="M51.1098 12.9907L47.9196 6.53336L44.7301 12.9907L37.5967 14.0263L42.7581 19.0529L41.5399 26.1499L47.9196 22.7993L54.3 26.1499L53.081 19.0522L58.2425 14.0263L51.1098 12.9907ZM50.6353 21.1111L47.9196 19.6847L45.2046 21.1111L45.7229 18.0904L43.5263 15.9511L46.5621 15.5108L47.9196 12.7626L49.2771 15.5108L52.3129 15.9511L50.1162 18.0904L50.6353 21.1111Z" fill="white"/>
<path d="M72.7534 6.53336L69.5632 12.9907L62.4305 14.0263L67.5919 19.0522L66.3737 26.1499L72.7534 22.7993L79.1338 26.1499L77.9148 19.0522L83.0763 14.0263L75.9436 12.9907L72.7534 6.53336ZM75.4683 21.1111L72.7534 19.6847L70.0377 21.1111L70.5567 18.0904L68.36 15.9511L71.3959 15.5108L72.7534 12.7626L74.1109 15.5108L77.1467 15.9511L74.95 18.0904L75.4683 21.1111Z" fill="white"/>
<path d="M88.9412 0H71.9989V2.75677H88.9412C90.209 2.75677 91.2405 3.78734 91.2405 5.05385V28.944C91.2405 30.2112 90.209 31.2418 88.9412 31.2418H26.3054V40.9859L12.4865 31.2418H5.05879C3.79104 31.2418 2.75947 30.2112 2.75947 28.944V16.9387H0V28.944C0 31.7309 2.26917 33.9978 5.05879 33.9978H11.6115L29.0649 46.3065V33.9978H88.9412C91.7308 33.9978 94 31.7309 94 28.944V5.05385C94 2.26695 91.7308 0 88.9412 0Z" fill="white"/>
<path d="M2.75947 5.05385C2.75947 3.78734 3.79104 2.75677 5.05879 2.75677H69.2402V0H5.05879C2.26917 0 0 2.26695 0 5.05385V14.1819H2.75947V5.05385Z" fill="white"/>
<path d="M28.1446 83.0066H30.9041C30.9041 81.3779 32.2299 80.0526 33.8602 80.0526V77.2966C30.7088 77.2966 28.1446 79.8583 28.1446 83.0066Z" fill="white"/>
<path d="M88.2973 12.4048V5.51355H81.3993V8.26961H85.5378V12.4048H88.2973Z" fill="white"/>
<path d="M5.51894 21.4095V28.3014H12.4169V25.5446H8.27769V21.4095H5.51894Z" fill="white"/>
<path d="M40.102 87.8439H42.8608V90.5999H40.102V87.8439Z" fill="white"/>
<path d="M45.6203 87.8439H48.3797V90.5999H45.6203V87.8439Z" fill="white"/>
<path d="M51.1392 87.8439H53.898V90.5999H51.1392V87.8439Z" fill="white"/>
</svg>
