<svg width="76" height="76" viewBox="0 0 76 76" fill="none" xmlns="http://www.w3.org/2000/svg">
<path fill-rule="evenodd" clip-rule="evenodd" d="M47.8398 1.31184C57.6417 3.93829 65.8341 10.2245 70.908 19.0127C75.5082 26.9805 77.0616 36.3343 75.2825 45.3503C73.5198 54.2801 68.6258 62.2772 61.502 67.8684C60.8569 68.3747 59.9241 68.2622 59.4181 67.6172C58.9117 66.9723 59.0243 66.0394 59.6692 65.5333C69.5365 57.7887 74.2047 45.4732 72.7191 33.5678C72.519 34.4211 72.1003 35.1909 71.492 35.7994L70.5314 36.7599C70.2503 37.0413 69.8713 37.1947 69.482 37.1947C69.375 37.1947 69.2673 37.1831 69.1605 37.1595C68.6656 37.0497 68.2606 36.6946 68.0873 36.2178L66.0693 30.6688C66.0381 30.5831 65.9925 30.505 65.9336 30.436L64.105 28.2951C63.961 28.1265 63.7513 28.0298 63.5296 28.0298H62.8208L62.8998 28.1485C63.2924 28.7373 63.2146 29.5209 62.7144 30.0213C60.7562 31.9792 58.3478 33.5207 55.7494 34.479L54.631 34.8914C53.9312 35.1502 53.1472 34.8477 52.8018 34.1857L48.9606 26.8281C48.8499 26.616 48.792 26.3803 48.792 26.1411V25.1009L46.7195 23.1227L44.5339 22.3545C43.7606 22.0827 43.354 21.2356 43.6258 20.4621C43.8974 19.6888 44.7444 19.2817 45.5182 19.5539L48.0053 20.4279C48.2041 20.4978 48.3857 20.6092 48.5382 20.7546L51.3011 23.3922C51.5945 23.672 51.7605 24.0602 51.7605 24.4657V25.7769L54.8287 31.654C56.6099 30.9827 58.2828 29.9874 59.7292 28.7437L59.5027 28.4036C59.062 27.7428 59.021 26.897 59.3958 26.1966C59.7706 25.4965 60.4968 25.0612 61.2913 25.0612H63.5296C64.6208 25.0612 65.653 25.537 66.362 26.3669L68.1906 28.5078C68.4812 28.8479 68.7062 29.2337 68.859 29.6543L69.8841 32.4735C69.8845 32.4616 69.8848 32.4497 69.885 32.4377C69.9034 31.3376 70.3846 30.2865 71.2059 29.5537L71.8352 28.9926C71.0643 26.0694 69.9049 23.2114 68.3375 20.4966C62.4532 10.3046 52.1843 4.18811 41.275 3.15038L37.0055 8.50586C36.8314 8.72421 36.5992 8.88898 36.3359 8.98131L26.7315 12.3485L24.5534 17.6282L26.7673 20.7295C27.9814 18.77 30.1475 17.5251 32.513 17.5251H33.3569C34.1764 17.5251 34.8411 18.1898 34.8411 19.0093C34.8411 19.8288 34.1764 20.4935 33.3569 20.4935H32.513C30.9197 20.4935 29.4876 21.5011 28.9493 23.0008L28.9128 23.1026C29.6219 23.0231 30.3386 22.9972 30.9869 22.9742C31.3997 22.9597 31.79 22.9459 32.0984 22.92C32.6414 22.8739 35.3939 22.7366 36.2231 24.4905C36.37 24.8013 36.5103 25.299 36.3553 25.9192L36.384 25.9384C36.8438 26.2449 37.5911 26.7429 38.1345 27.0037C38.2954 26.6112 38.5702 26.3671 38.6629 26.2927C39.0141 26.0112 39.4871 25.8155 40.2451 25.6378C40.528 25.5713 40.8246 25.5895 41.0979 25.6905C41.424 25.8109 41.9185 25.9447 42.4423 26.0865L42.4434 26.0868C44.0007 26.5086 45.7654 26.9866 46.7017 27.9786C47.7434 29.0828 48.3554 30.6668 48.8954 32.0643L48.8956 32.065C49.0997 32.5931 49.2925 33.092 49.4855 33.5044C49.5917 33.7311 49.6964 33.9645 49.8025 34.201L49.8087 34.2148L49.8087 34.215C50.3521 35.4269 50.914 36.6799 51.8323 37.2803C52.0403 37.4162 52.693 37.5165 53.126 37.583L53.1279 37.5833C54.2242 37.7513 55.5888 37.9606 56.1257 39.206C56.6734 40.4761 55.7885 41.7575 55.4975 42.1788L55.4974 42.1789C54.8325 43.1414 53.9725 43.9423 53.1406 44.717C51.2216 46.5041 50.4279 47.4404 50.8817 48.9045C51.421 50.6445 51.9301 52.2878 49.9531 54.4391C49.8363 54.5662 49.7275 54.6822 49.6253 54.7908L49.624 54.7922C49.0386 55.4157 48.8616 55.6042 48.618 56.3713C48.2974 57.3816 47.8023 57.9391 47.4044 58.3872L47.404 58.3877L47.4035 58.3883L47.4034 58.3883L47.4033 58.3884C47.2058 58.611 47.0497 58.7869 46.9171 59.0138C46.8307 59.1618 46.7853 59.388 46.7278 59.6745L46.7272 59.677C46.6115 60.2555 46.4528 61.0474 45.8086 61.8383C44.7829 63.0978 42.5501 65.0845 40.4103 65.0846C39.9707 65.0847 39.5355 65.0009 39.1149 64.8097C38.312 64.4445 37.3116 63.5376 35.977 59.5774C35.8113 59.0853 35.5584 58.5285 35.2906 57.9387L35.2905 57.9385L35.29 57.9373C34.4647 56.1196 33.5292 54.059 34.2003 51.9816C34.2391 51.861 34.2776 51.7435 34.3155 51.6283C34.7572 50.282 34.9588 49.6676 34.4958 48.5582C34.423 48.3834 34.1864 48.1231 33.9576 47.8715L33.9575 47.8714L33.9575 47.8713C33.4973 47.3649 32.9246 46.7345 32.703 45.8225C32.5647 45.2523 32.5678 44.753 32.5706 44.3516C32.5746 43.7209 32.5564 43.6857 32.3578 43.4997C31.9496 43.1176 31.5464 43.1491 30.2738 43.4639C29.8123 43.5782 29.3354 43.6962 28.8239 43.7562C25.6842 44.1255 22.7424 42.8635 20.9581 40.3809C19.1127 37.8132 18.8314 34.387 20.224 31.4392C20.8574 30.0991 21.7489 29.0958 22.6112 28.1257C22.776 27.9405 22.9422 27.7535 23.1083 27.562C23.2993 27.3421 23.5755 26.95 23.8681 26.5346L23.8685 26.5342C24.536 25.5869 25.0949 24.8239 25.669 24.3001L21.66 18.6844C21.363 18.2682 21.3011 17.7287 21.496 17.256L24.2409 10.6018C24.4021 10.2108 24.7227 9.90711 25.1219 9.76728L34.9507 6.3216L37.6012 2.99675C31.7766 3.05449 25.8902 4.56366 20.4963 7.67788C19.0261 8.52649 17.6428 9.46818 16.3455 10.4881C17.5434 11.2346 18.5011 12.3422 19.0494 13.6727C19.979 15.9283 19.504 18.5383 17.8395 20.3222L16.2107 22.0676L12.1698 29.1221C12.0637 29.3073 11.9188 29.4675 11.7451 29.5917L9.13827 31.4558L10.9583 34.1253C11.2434 34.5436 11.2958 35.0781 11.0972 35.5436C10.8986 36.009 10.4766 36.3415 9.97739 36.425C9.96507 36.4271 8.71938 36.6357 7.46716 36.8208C6.14681 37.0158 5.34718 37.1234 4.80701 37.1236C4.2192 37.1236 3.93925 36.9959 3.6302 36.7145C3.52273 36.6165 3.431 36.5034 3.35693 36.3801C3.29711 36.318 3.19988 36.2235 3.05055 36.0844C2.97425 37.4304 2.97544 38.7836 3.05575 40.1372L6.84031 38.9078C7.30314 38.7576 7.81005 38.8435 8.19732 39.138L14.6615 44.0528L18.0117 44.7074C19.3107 44.9614 20.4396 45.7619 21.1092 46.9035C21.7788 48.0453 21.9262 49.4212 21.5137 50.6787C21.404 51.0133 21.4034 51.3673 21.5122 51.7022L21.9824 53.1493C22.7688 55.5709 21.4388 58.1811 19.0174 58.9678L18.3766 59.1759L17.0467 66.1176C26.4136 73.1485 38.9509 75.1709 50.532 70.7197C51.2969 70.4251 52.1558 70.8073 52.45 71.5725C52.7442 72.3377 52.3624 73.1964 51.5972 73.4905C47.2463 75.1626 42.6434 76.0007 38.0322 76.0007C33.7912 76.0007 29.5437 75.2922 25.4749 73.8725C16.8913 70.8774 9.65765 64.8863 5.10641 57.0032C0.032669 48.2151 -1.31514 37.9769 1.31116 28.1752C3.93747 18.3734 10.2238 10.1808 19.0119 5.10709C27.8001 0.0333453 38.0382 -1.31462 47.8398 1.31184ZM13.1393 46.6248L7.01873 41.9711L3.36509 43.1581C3.99001 47.3969 5.40789 51.589 7.6772 55.5191C9.53727 58.741 11.8288 61.5643 14.4388 63.9531L15.626 57.7559C15.7277 57.2248 16.1104 56.7908 16.625 56.6237L18.1 56.1444C18.9647 55.8634 19.44 54.931 19.159 54.0662L18.6887 52.6193C18.384 51.6816 18.3855 50.6905 18.6927 49.7534C18.8421 49.2975 18.791 48.8188 18.5483 48.4051C18.3056 47.9913 17.9129 47.7128 17.442 47.6208L13.753 46.9C13.5301 46.8565 13.3202 46.7624 13.1393 46.6248ZM13.9232 20.1677L15.6692 18.2969C16.5435 17.3599 16.7932 15.9886 16.3048 14.8038C15.8708 13.7503 14.9823 12.9427 13.8996 12.6017C8.24527 17.967 4.65011 24.9958 3.44465 32.4567C4.17556 33.0963 4.66585 33.5341 5.01868 33.8618C5.11294 33.9494 5.20408 34.0341 5.29122 34.1177C5.74454 34.0683 6.42632 33.9751 7.18602 33.862L5.86804 31.9287C5.41353 31.2619 5.57473 30.3545 6.23112 29.8852L9.75518 27.3653L13.7202 20.4428C13.7771 20.3436 13.8452 20.2513 13.9232 20.1677ZM31.0918 25.9412C29.9699 25.981 28.4333 26.0355 27.7713 26.408C27.4464 26.6101 26.6982 27.672 26.296 28.2429L26.2954 28.2437C25.9586 28.7222 25.6401 29.174 25.3506 29.5077C25.1838 29.6998 25.0171 29.8875 24.8517 30.0736L24.8303 30.0977C24.0412 30.9854 23.3598 31.7524 22.9087 32.707C21.9768 34.6797 22.1533 36.9563 23.3691 38.648C24.5314 40.2654 26.3931 41.0521 28.4783 40.8078C28.8023 40.7697 29.1675 40.6795 29.5541 40.584L29.5542 40.584L29.5615 40.5822C30.8291 40.2687 32.7446 39.795 34.3872 41.3325C35.5522 42.4235 35.5446 43.5953 35.5395 44.3709V44.371C35.5376 44.6586 35.5359 44.9069 35.5882 45.122C35.6311 45.2983 35.9094 45.6047 36.1551 45.875L36.1569 45.877L36.1569 45.8771C36.536 46.2945 36.9657 46.7677 37.2357 47.4149C38.124 49.5435 37.6445 51.0055 37.1366 52.5537C37.1 52.6645 37.0629 52.7779 37.0254 52.894C36.7074 53.878 37.361 55.3179 37.9932 56.7102L37.9935 56.7109C38.2802 57.3423 38.5766 57.9952 38.7903 58.6296C39.6572 61.2025 40.2309 61.946 40.3893 62.1159C40.5281 62.1242 40.9354 62.0636 41.633 61.6207C42.3837 61.1437 43.1149 60.4449 43.5069 59.9637C43.6791 59.7523 43.729 59.5321 43.817 59.0935C43.9062 58.6478 44.0175 58.0929 44.3542 57.5167C44.6351 57.0358 44.9398 56.6926 45.1845 56.4171L45.1845 56.417C45.4905 56.0727 45.6589 55.883 45.789 55.4734C46.2366 54.0634 46.7773 53.4877 47.4619 52.759L47.4619 52.7589L47.462 52.7588C47.5572 52.6576 47.6587 52.5495 47.7676 52.4309C48.567 51.5613 48.5438 51.388 48.0467 49.7837C46.9935 46.3861 49.2804 44.2563 51.1179 42.5451L51.1191 42.544C51.8399 41.8727 52.5221 41.2374 53.0013 40.569C52.8876 40.5503 52.7756 40.533 52.678 40.518L52.6767 40.5178C51.8692 40.394 50.9544 40.2536 50.208 39.7656C48.561 38.6891 47.7847 36.9575 47.0998 35.4298L47.0771 35.3792L47.0771 35.3791L47.077 35.379C46.9833 35.1701 46.8908 34.9639 46.7969 34.7633C46.5604 34.2578 46.3496 33.7128 46.1265 33.1352L46.1259 33.1336C45.6844 31.9912 45.1842 30.6967 44.5425 30.0164C44.1811 29.6334 42.5452 29.1905 41.6663 28.9525L41.6471 28.9474L41.6464 28.9472L41.6451 28.9468C41.3969 28.8795 41.1547 28.8138 40.9239 28.7478C40.8188 28.9466 40.6775 29.1114 40.5267 29.2343C40.5113 29.2485 40.4965 29.2637 40.4815 29.2792L40.4638 29.2974L40.4614 29.2998C40.1922 29.5739 39.5676 30.21 38.4476 30.1374C37.2123 30.0587 35.8972 29.1822 34.7372 28.4088L34.7371 28.4087C34.3268 28.1352 33.9393 27.8768 33.6609 27.7278C33.25 27.5079 32.9661 27.1079 32.8947 26.6473C32.854 26.3855 32.8844 26.1215 32.9781 25.8811C32.7683 25.8647 32.546 25.8616 32.3457 25.8784C31.9663 25.9102 31.5415 25.9253 31.0919 25.9412L31.0918 25.9412ZM55.5152 68.3386C56.2247 67.9274 57.1327 68.1688 57.5439 68.8774C57.9551 69.5865 57.7138 70.4948 57.0049 70.9061L56.9478 70.9391C56.7134 71.075 56.4569 71.1399 56.2042 71.1399C55.6924 71.1399 55.1944 70.8748 54.9191 70.4002C54.5079 69.6912 54.7491 68.7829 55.458 68.3716L55.5152 68.3386ZM60.8627 51.1037L60.1486 48.412C59.9926 47.8242 59.4938 47.391 58.8901 47.3189C58.2857 47.2482 57.6995 47.5504 57.4093 48.085C57.2466 48.3848 57.1001 48.7025 56.9585 49.0096C56.7203 49.5263 56.4739 50.0607 56.2175 50.3556C56.0735 50.5213 55.7036 50.6998 55.3462 50.8723C54.4916 51.2847 53.3212 51.8495 52.8741 53.2748C52.5965 54.1589 52.7001 54.8583 52.7758 55.3689C52.8413 55.8117 52.8565 55.9652 52.7379 56.2437L52.723 56.2783C52.2505 57.3869 51.3715 59.451 52.6041 61.2057C53.4836 62.4579 54.4084 62.7798 55.127 62.7798C55.2672 62.7803 55.3999 62.768 55.5227 62.7479C57.0367 62.5005 58.175 60.9255 59.1051 57.7911L60.851 51.9069C60.9286 51.6452 60.9328 51.3674 60.8627 51.1037ZM56.2594 56.9467C55.7853 58.5448 55.3658 59.2908 55.1237 59.6215C55.0958 59.5859 55.0655 59.5455 55.0331 59.4994C54.7495 59.0954 55.1733 58.1005 55.4538 57.4418L55.4539 57.4418L55.454 57.4416L55.4689 57.4068C55.9211 56.3457 55.8006 55.5306 55.7126 54.9352L55.7124 54.9339C55.6558 54.5525 55.6356 54.3887 55.7065 54.1635C55.7646 53.9784 56.1124 53.7988 56.6364 53.5458L56.642 53.5431L56.6421 53.5431C56.8729 53.4316 57.1266 53.309 57.3826 53.1609L56.2594 56.9467ZM39.9824 17.6083L40.0826 17.6433C40.8561 17.9145 41.2632 18.7615 40.9919 19.5351C40.7776 20.1459 40.204 20.5285 39.5912 20.5285C39.4281 20.5285 39.2625 20.5014 39.0999 20.4444L38.9999 20.4094C38.2264 20.1381 37.8192 19.2912 38.0905 18.5176C38.3619 17.7441 39.2095 17.3375 39.9824 17.6083Z" fill="white"/>
</svg>
