<svg width="66" height="49" viewBox="0 0 66 49" fill="none" xmlns="http://www.w3.org/2000/svg">
<circle cx="47" cy="12" r="12" fill="#03AD53"/>
<path d="M64.9 39.122H63.8V27.0488C63.7971 24.4299 62.7531 21.9191 60.8971 20.0672C59.0412 18.2153 56.5248 17.1737 53.9 17.1708H46.2V5.09756C46.2 4.80647 46.0841 4.5273 45.8778 4.32147C45.6715 4.11564 45.3917 4 45.1 4H1.1C0.808262 4 0.528473 4.11564 0.322182 4.32147C0.115892 4.5273 0 4.80647 0 5.09756V40.2196C0 40.5107 0.115892 40.7899 0.322182 40.9957C0.528473 41.2015 0.808262 41.3172 1.1 41.3172H2.2V42.4147C2.2 43.288 2.54768 44.1255 3.16655 44.743C3.78542 45.3605 4.62479 45.7074 5.5 45.7074H10.7932C11.3705 46.7082 12.202 47.5396 13.2039 48.1176C14.2058 48.6956 15.3427 49 16.5 49C17.6573 49 18.7942 48.6956 19.7961 48.1176C20.798 47.5396 21.6295 46.7082 22.2068 45.7074H48.1932C48.7705 46.7082 49.602 47.5396 50.6039 48.1176C51.6058 48.6956 52.7427 49 53.9 49C55.0573 49 56.1942 48.6956 57.1961 48.1176C58.198 47.5396 59.0295 46.7082 59.6068 45.7074H62.7C63.5752 45.7074 64.4146 45.3605 65.0335 44.743C65.6523 44.1255 66 43.288 66 42.4147V40.2196C66 39.9285 65.8841 39.6493 65.6778 39.4435C65.4715 39.2377 65.1917 39.122 64.9 39.122ZM61.6 27.0488V29.244H51.7C51.4083 29.244 51.1285 29.1283 50.9222 28.9225C50.7159 28.7167 50.6 28.4375 50.6 28.1464V19.3659H53.9C55.9415 19.3682 57.8986 20.1784 59.3422 21.6187C60.7857 23.0591 61.5977 25.0119 61.6 27.0488ZM48.4 19.3659V28.1464C48.4 29.0197 48.7477 29.8572 49.3666 30.4747C49.9854 31.0922 50.8248 31.4391 51.7 31.4391H61.6V39.122H59.6068C59.0295 38.1212 58.198 37.2899 57.1961 36.7119C56.1942 36.1338 55.0573 35.8295 53.9 35.8295C52.7427 35.8295 51.6058 36.1338 50.6039 36.7119C49.602 37.2899 48.7705 38.1212 48.1932 39.122H46.2V19.3659H48.4ZM22.2068 39.122C21.6295 38.1212 20.798 37.2899 19.7961 36.7119C18.7942 36.1338 17.6573 35.8295 16.5 35.8295C15.3427 35.8295 14.2058 36.1338 13.2039 36.7119C12.202 37.2899 11.3705 38.1212 10.7932 39.122H2.2V34.7318H44V39.122H22.2068ZM2.2 6.19513H44V32.5367H2.2V6.19513ZM5.5 43.5123C5.20826 43.5123 4.92847 43.3967 4.72218 43.1908C4.51589 42.985 4.4 42.7058 4.4 42.4147V41.3172H9.999C9.86699 42.043 9.86699 42.7865 9.999 43.5123H5.5ZM16.5 46.805C15.6298 46.805 14.7791 46.5475 14.0555 46.0651C13.3319 45.5827 12.768 44.897 12.4349 44.0948C12.1019 43.2926 12.0148 42.4099 12.1845 41.5582C12.3543 40.7066 12.7734 39.9243 13.3887 39.3104C14.0041 38.6964 14.7881 38.2782 15.6416 38.1088C16.4951 37.9394 17.3798 38.0264 18.1838 38.3587C18.9878 38.691 19.675 39.2537 20.1585 39.9756C20.6419 40.6976 20.9 41.5464 20.9 42.4147C20.9 43.5791 20.4364 44.6958 19.6113 45.5191C18.7861 46.3425 17.667 46.805 16.5 46.805ZM23.001 43.5123C23.133 42.7865 23.133 42.043 23.001 41.3172H47.399C47.267 42.043 47.267 42.7865 47.399 43.5123H23.001ZM53.9 46.805C53.0298 46.805 52.1791 46.5475 51.4555 46.0651C50.7319 45.5827 50.168 44.897 49.8349 44.0948C49.5019 43.2926 49.4148 42.4099 49.5845 41.5582C49.7543 40.7066 50.1734 39.9243 50.7887 39.3104C51.4041 38.6964 52.1881 38.2782 53.0416 38.1088C53.8951 37.9394 54.7798 38.0264 55.5838 38.3587C56.3878 38.691 57.075 39.2537 57.5585 39.9756C58.0419 40.6976 58.3 41.5464 58.3 42.4147C58.3 43.5791 57.8364 44.6958 57.0113 45.5191C56.1861 46.3425 55.067 46.805 53.9 46.805ZM63.8 42.4147C63.8 42.7058 63.6841 42.985 63.4778 43.1908C63.2715 43.3967 62.9917 43.5123 62.7 43.5123H60.401C60.533 42.7865 60.533 42.043 60.401 41.3172H63.8V42.4147Z" fill="#3D505A"/>
<path d="M8.8 22.6586C9.09174 22.6586 9.37153 22.543 9.57782 22.3371C9.78411 22.1313 9.9 21.8521 9.9 21.561V18.2683H12.1C12.3917 18.2683 12.6715 18.1527 12.8778 17.9469C13.0841 17.741 13.2 17.4619 13.2 17.1708C13.2 16.8797 13.0841 16.6005 12.8778 16.3947C12.6715 16.1888 12.3917 16.0732 12.1 16.0732H9.9V13.8781H13.2C13.4917 13.8781 13.7715 13.7624 13.9778 13.5566C14.1841 13.3508 14.3 13.0716 14.3 12.7805C14.3 12.4894 14.1841 12.2102 13.9778 12.0044C13.7715 11.7986 13.4917 11.6829 13.2 11.6829H8.8C8.50826 11.6829 8.22847 11.7986 8.02218 12.0044C7.81589 12.2102 7.7 12.4894 7.7 12.7805V21.561C7.7 21.8521 7.81589 22.1313 8.02218 22.3371C8.22847 22.543 8.50826 22.6586 8.8 22.6586Z" fill="#3D505A"/>
<path d="M16.5 22.6586C16.7917 22.6586 17.0715 22.543 17.2778 22.3371C17.4841 22.1313 17.6 21.8521 17.6 21.561V19.0004L20.02 22.2196C20.195 22.4524 20.4556 22.6064 20.7444 22.6476C21.0332 22.6887 21.3266 22.6137 21.56 22.4391C21.7934 22.2644 21.9477 22.0044 21.9889 21.7162C22.0302 21.4281 21.955 21.1354 21.78 20.9025L19.6768 18.1048C20.4302 17.8729 21.0751 17.3788 21.4942 16.7125C21.9133 16.0462 22.0787 15.2519 21.9604 14.4741C21.8421 13.6963 21.4479 12.9868 20.8495 12.4745C20.2512 11.9623 19.4884 11.6814 18.7 11.6829H16.5C16.2083 11.6829 15.9285 11.7986 15.7222 12.0044C15.5159 12.2102 15.4 12.4894 15.4 12.7805V21.561C15.4 21.8521 15.5159 22.1313 15.7222 22.3371C15.9285 22.543 16.2083 22.6586 16.5 22.6586ZM19.8 14.9756C19.8 15.2667 19.6841 15.5459 19.4778 15.7517C19.2715 15.9576 18.9917 16.0732 18.7 16.0732H17.6V13.8781H18.7C18.9917 13.8781 19.2715 13.9937 19.4778 14.1995C19.6841 14.4054 19.8 14.6845 19.8 14.9756Z" fill="#3D505A"/>
<path d="M25.3 22.6586H29.7C29.9917 22.6586 30.2715 22.543 30.4778 22.3371C30.6841 22.1313 30.8 21.8521 30.8 21.561C30.8 21.2699 30.6841 20.9908 30.4778 20.7849C30.2715 20.5791 29.9917 20.4635 29.7 20.4635H26.4V18.2683H28.6C28.8917 18.2683 29.1715 18.1527 29.3778 17.9469C29.5841 17.741 29.7 17.4619 29.7 17.1708C29.7 16.8797 29.5841 16.6005 29.3778 16.3947C29.1715 16.1888 28.8917 16.0732 28.6 16.0732H26.4V13.8781H29.7C29.9917 13.8781 30.2715 13.7624 30.4778 13.5566C30.6841 13.3508 30.8 13.0716 30.8 12.7805C30.8 12.4894 30.6841 12.2102 30.4778 12.0044C30.2715 11.7986 29.9917 11.6829 29.7 11.6829H25.3C25.0083 11.6829 24.7285 11.7986 24.5222 12.0044C24.3159 12.2102 24.2 12.4894 24.2 12.7805V21.561C24.2 21.8521 24.3159 22.1313 24.5222 22.3371C24.7285 22.543 25.0083 22.6586 25.3 22.6586Z" fill="#3D505A"/>
<path d="M33 22.6586H37.4C37.6917 22.6586 37.9715 22.543 38.1778 22.3371C38.3841 22.1313 38.5 21.8521 38.5 21.561C38.5 21.2699 38.3841 20.9908 38.1778 20.7849C37.9715 20.5791 37.6917 20.4635 37.4 20.4635H34.1V18.2683H36.3C36.5917 18.2683 36.8715 18.1527 37.0778 17.9469C37.2841 17.741 37.4 17.4619 37.4 17.1708C37.4 16.8797 37.2841 16.6005 37.0778 16.3947C36.8715 16.1888 36.5917 16.0732 36.3 16.0732H34.1V13.8781H37.4C37.6917 13.8781 37.9715 13.7624 38.1778 13.5566C38.3841 13.3508 38.5 13.0716 38.5 12.7805C38.5 12.4894 38.3841 12.2102 38.1778 12.0044C37.9715 11.7986 37.6917 11.6829 37.4 11.6829H33C32.7083 11.6829 32.4285 11.7986 32.2222 12.0044C32.0159 12.2102 31.9 12.4894 31.9 12.7805V21.561C31.9 21.8521 32.0159 22.1313 32.2222 22.3371C32.4285 22.543 32.7083 22.6586 33 22.6586Z" fill="#3D505A"/>
<path d="M40.7 24.8537H5.5C5.20826 24.8537 4.92847 24.9694 4.72218 25.1752C4.51589 25.381 4.4 25.6602 4.4 25.9513C4.4 26.2424 4.51589 26.5215 4.72218 26.7274C4.92847 26.9332 5.20826 27.0488 5.5 27.0488H40.7C40.9917 27.0488 41.2715 26.9332 41.4778 26.7274C41.6841 26.5215 41.8 26.2424 41.8 25.9513C41.8 25.6602 41.6841 25.381 41.4778 25.1752C41.2715 24.9694 40.9917 24.8537 40.7 24.8537Z" fill="#3D505A"/>
</svg>
