<svg width="17" height="14" viewBox="0 0 17 14" fill="none" xmlns="http://www.w3.org/2000/svg">
<path d="M16.7283 6.34616L10.589 0.268705C10.4137 0.0952232 10.1802 0 9.9311 0C9.68177 0 9.44833 0.09536 9.27308 0.268705L8.71568 0.820616C8.54056 0.993824 8.44409 1.22518 8.44409 1.47186C8.44409 1.7184 8.54056 1.95755 8.71568 2.13076L12.2973 5.68398H0.918407C0.405371 5.68398 0 6.08156 0 6.58956V7.36981C0 7.8778 0.405371 8.31548 0.918407 8.31548H12.3379L8.71581 11.8885C8.5407 12.062 8.44423 12.2871 8.44423 12.5338C8.44423 12.7802 8.5407 13.0085 8.71581 13.1818L9.27322 13.732C9.44847 13.9055 9.6819 14 9.93124 14C10.1803 14 10.4139 13.9042 10.5891 13.7307L16.7284 7.65343C16.9041 7.4794 17.0007 7.24709 17 7.00014C17.0005 6.75237 16.9041 6.51992 16.7283 6.34616Z" fill="#62AE2F"/>
</svg>
