<svg width="18" height="14" viewBox="0 0 18 14" fill="none" xmlns="http://www.w3.org/2000/svg">
<path d="M8.11764 6.90408C8.58765 7.22949 9.41235 7.22953 9.88246 6.90404C9.88253 6.90401 9.88264 6.90394 9.88271 6.9039L17.8937 1.35771C17.6309 0.568525 16.9086 0 16.0605 0H1.93944C1.09129 0 0.369073 0.568525 0.106278 1.35771L8.1174 6.90394C8.1175 6.90401 8.11757 6.90401 8.11764 6.90408Z" fill="white"/>
<path d="M10.4677 7.81527C10.4676 7.81534 10.4675 7.81541 10.4675 7.81545C10.0561 8.10026 9.52795 8.24268 9 8.24268C8.47195 8.24268 7.94404 8.10029 7.5326 7.81541C7.53253 7.81537 7.5325 7.81534 7.53243 7.8153L0 2.60048V11.986C0 13.0965 0.870019 14 1.93944 14H16.0606C17.13 14 18 13.0965 18 11.986V2.60048L10.4677 7.81527Z" fill="white"/>
</svg>
