<svg width="119" height="119" viewBox="0 0 119 119" fill="none" xmlns="http://www.w3.org/2000/svg">
<circle cx="59.5" cy="59.5" r="58" stroke="white" stroke-width="3"/>
<path d="M78.6637 29.5869C75.4399 25.8812 69.8115 24 61.9469 24H42.2322C39.7346 24 37.6445 25.7894 37.2548 28.2569L29.0447 80.7569C28.872 81.89 29.2042 83.0363 29.957 83.9025C30.6965 84.76 31.777 85.25 32.9106 85.25H46.9793L50.2341 64.4162C50.3005 64.1231 50.5441 63.9131 50.8186 63.9131H56.602C70.6573 63.9131 79.0844 57.2194 81.6306 44.0244L81.8565 42.76C82.6979 37.0594 81.7458 33.1219 78.6637 29.5869ZM77.4813 42.0775L77.2821 43.1931C75.1609 54.1875 68.3989 59.5337 56.6064 59.5337H50.8231C48.5425 59.5337 46.5985 61.0344 45.9874 63.1781L45.9519 63.1694L45.8589 63.7688C45.8545 63.7731 45.8545 63.7775 45.8545 63.7862L43.1843 80.875H33.5085L41.6299 28.9263C41.6786 28.6069 41.9311 28.375 42.2322 28.375H61.9425C68.4609 28.375 72.96 29.74 75.3115 32.4394C77.5256 34.9812 78.1279 37.6981 77.4813 42.0775Z" fill="white"/>
<path d="M54.7929 71.9446L54.704 72.5552L59.0871 73.1787L59.1761 72.5681L54.7929 71.9446Z" fill="white"/>
<path d="M87.5247 38.3106C85.7799 36.3331 83.3178 34.8587 80.2047 33.9356L78.9338 38.1269C81.2321 38.8094 82.999 39.8375 84.1769 41.1763C86.3689 43.6963 86.9889 46.4962 86.3335 50.8056C86.3335 50.8056 86.2139 51.51 86.1165 51.9431C84.0175 62.9331 77.2599 68.275 65.4452 68.275H59.6885C57.2086 68.275 55.1141 70.06 54.7111 72.5362L52.0364 89.625H42.3473L43.3215 83.395L38.9464 82.73L37.8747 89.5725C37.733 90.71 38.0873 91.8475 38.8445 92.6962C39.5885 93.5275 40.6469 94 41.7539 94H55.8314L59.0818 73.2188C59.1305 72.9344 59.3519 72.65 59.6885 72.65H65.4452C79.5316 72.65 87.9498 65.9563 90.4473 52.8356C90.5492 52.4025 90.6998 51.5319 90.7042 51.4925C91.5589 45.8881 90.5802 41.8281 87.5247 38.3106Z" fill="white"/>
</svg>
