<svg width="119" height="119" viewBox="0 0 119 119" fill="none" xmlns="http://www.w3.org/2000/svg">
<circle cx="59.5" cy="59.5" r="58" stroke="white" stroke-width="3"/>
<path d="M82.2835 30.8936L28.0114 42.098C24.0753 42.9106 21.5509 46.8687 22.3868 50.9174L29.0589 83.2359C29.8947 87.2845 33.7802 89.9193 37.7163 89.1067L91.9883 77.9023C95.9244 77.0897 98.4488 73.1315 97.6129 69.083L90.9408 36.7645C90.1051 32.7158 86.2196 30.081 82.2835 30.8936ZM94.7567 69.6725C95.2583 72.1023 93.7442 74.4764 91.3819 74.9641L37.1097 86.1685C34.7474 86.6562 32.4169 85.0759 31.9152 82.6461L25.2431 50.3278C24.7415 47.8979 26.2556 45.5238 28.618 45.0361L82.89 33.8317C85.2523 33.344 87.5828 34.9244 88.0844 37.3542L94.7565 69.6725L94.7567 69.6725Z" fill="white"/>
<path d="M89.816 38.5283L24.1183 52.0915C23.3299 52.2543 22.8259 53.0445 22.9933 53.8554L24.813 62.6695C24.9804 63.4804 25.7562 64.0065 26.5445 63.8437L92.2423 50.2805C93.0307 50.1177 93.5347 49.3275 93.3673 48.5166L91.5476 39.7025C91.3801 38.8916 90.6043 38.3655 89.816 38.5283ZM90.2075 47.6372L27.3661 60.6108L26.153 54.7347L88.9942 41.7611L90.2074 47.6373L90.2075 47.6372Z" fill="white"/>
<path d="M54.072 67.3505L36.9335 70.8887C36.1451 71.0515 35.6411 71.8418 35.8085 72.6527C35.9759 73.4636 36.7516 73.9895 37.54 73.8267L54.6786 70.2885C55.4669 70.1257 55.9709 69.3355 55.8035 68.5246C55.6361 67.7137 54.8604 67.1877 54.072 67.3505Z" fill="white"/>
<path d="M55.2851 73.2265L38.1466 76.7647C37.3582 76.9275 36.8542 77.7177 37.0216 78.5286C37.189 79.3395 37.9648 79.8656 38.7531 79.7028L55.8917 76.1646C56.68 76.0018 57.1841 75.2116 57.0166 74.4007C56.8491 73.5898 56.0735 73.0637 55.2851 73.2265Z" fill="white"/>
<path d="M82.0296 58.5153L79.1732 59.105C76.8109 59.5927 75.2968 61.9668 75.7984 64.3966L76.405 67.3346C76.9066 69.7644 79.2372 71.3448 81.5995 70.8571L84.4558 70.2674C86.8181 69.7797 88.3323 67.4056 87.8306 64.9758L87.2241 62.0378C86.7225 59.6081 84.3919 58.0276 82.0296 58.5153ZM84.9743 65.5656C85.1417 66.3765 84.6377 67.1668 83.8493 67.3296L80.9929 67.9193C80.2046 68.082 79.4288 67.556 79.2614 66.7451L78.6549 63.8071C78.4874 62.9962 78.9914 62.2059 79.7798 62.0431L82.6362 61.4534C83.4246 61.2907 84.2003 61.8167 84.3677 62.6276L84.9743 65.5656Z" fill="white"/>
</svg>
