<svg width="119" height="119" viewBox="0 0 119 119" fill="none" xmlns="http://www.w3.org/2000/svg">
<circle cx="59.5" cy="59.5" r="58" stroke="white" stroke-width="3"/>
<path d="M50.2207 74.9274C50.2055 74.8524 50.1832 74.7786 50.1539 74.7071C50.1246 74.6368 50.0883 74.5688 50.0461 74.5055C50.0039 74.4411 49.9547 74.3813 49.9008 74.3274C49.8469 74.2735 49.7871 74.2243 49.7227 74.1821C49.6594 74.1399 49.5914 74.1035 49.5199 74.0742C49.4496 74.0449 49.3758 74.0215 49.3008 74.0074C49.1496 73.977 48.9937 73.977 48.8438 74.0074C48.7688 74.0215 48.6949 74.0449 48.6234 74.0742C48.5531 74.1035 48.4852 74.1399 48.4219 74.1821C48.3574 74.2243 48.2977 74.2735 48.2437 74.3274C48.1898 74.3813 48.1406 74.4411 48.0984 74.5055C48.0551 74.5688 48.0199 74.6368 47.9906 74.7071C47.9613 74.7786 47.9379 74.8524 47.9238 74.9274C47.9086 75.0024 47.9004 75.0798 47.9004 75.156C47.9004 75.2322 47.9086 75.3095 47.9238 75.3845C47.9379 75.4595 47.9613 75.5334 47.9906 75.6037C48.0199 75.6752 48.0551 75.7431 48.0984 75.8064C48.1406 75.8709 48.1898 75.9307 48.2437 75.9846C48.2977 76.0385 48.3574 76.0877 48.4219 76.1299C48.4852 76.1722 48.5531 76.2085 48.6234 76.2378C48.6949 76.2671 48.7688 76.2906 48.8438 76.3046C48.9187 76.3199 48.9961 76.3281 49.0723 76.3281C49.1484 76.3281 49.2258 76.3199 49.3008 76.3046C49.3758 76.2906 49.4496 76.2671 49.5199 76.2378C49.5914 76.2085 49.6594 76.1721 49.7227 76.1299C49.7871 76.0877 49.8469 76.0385 49.9008 75.9846C49.9547 75.9307 50.0039 75.8709 50.0461 75.8064C50.0883 75.7431 50.1246 75.6752 50.1539 75.6037C50.1832 75.5334 50.2055 75.4595 50.2207 75.3845C50.2359 75.3095 50.2441 75.2322 50.2441 75.156C50.2441 75.0798 50.2359 75.0024 50.2207 74.9274Z" fill="white"/>
<path d="M83.9054 75.2884C83.9009 75.2767 83.8962 75.2651 83.8913 75.2536C82.8127 72.7295 80.283 71.7966 77.2894 72.8192L69.1252 75.0771C68.6531 73.6475 67.4757 72.431 65.811 71.8131C65.8007 71.8094 65.7904 71.8056 65.7799 71.8021L56.8056 68.7559C56.0586 67.7903 53.7189 65.3195 49.338 65.3195C46.2765 65.3195 43.5682 67.42 42.0187 69.7094H31.1719C30.5246 69.7094 30 70.2341 30 70.8814V85.6574C30 86.3047 30.5246 86.8294 31.1719 86.8294H38.1395C38.7867 86.8294 39.3114 86.3047 39.3114 85.6574V84.6455H42.5789C43.2261 84.6455 43.7508 84.1208 43.7508 83.4735V83.1362C45.6555 83.3024 46.282 83.6637 48.0314 84.6726C49.3767 85.4484 51.41 86.621 55.0717 88.2675C55.0887 88.2751 55.1059 88.2824 55.1231 88.2892C55.8259 88.5657 57.1997 89 58.8934 89C60.0723 89 61.4065 88.7894 62.7759 88.1686L80.8218 81.7068C80.8539 81.6953 80.8855 81.6824 80.9164 81.6681C82.6411 80.8745 85.2111 78.638 83.9054 75.2884ZM36.9676 84.4853H32.3438V72.0533H36.9676V84.4853ZM41.407 82.3014H39.3114V72.0533H41.407V82.3014ZM79.98 79.5183L61.9423 85.9772C61.9264 85.9829 61.905 85.9913 61.8894 85.9976C61.8736 86.0041 61.8578 86.0109 61.8422 86.018C59.33 87.1726 56.9421 86.4814 56.0063 86.1175C52.4693 84.5258 50.5815 83.4372 49.2022 82.6418C47.2846 81.5359 46.3605 81.0029 43.7508 80.7873V71.348C44.8616 69.5272 47.0157 67.6634 49.3382 67.6634C53.3209 67.6634 55.0085 70.254 55.0748 70.3586C55.2179 70.5913 55.4379 70.7668 55.6965 70.8546L65.01 74.0159C66.4975 74.5742 67.2836 75.8481 66.9223 77.1186C66.7555 77.7053 66.3702 78.1919 65.8375 78.4887C65.3093 78.783 64.6988 78.8558 64.1168 78.6948L53.6176 75.3673C53.0003 75.1717 52.3419 75.5134 52.1464 76.1305C51.9509 76.7475 52.2926 77.4062 52.9096 77.6018L63.427 80.935C63.4382 80.9385 63.4493 80.9419 63.4605 80.9451C63.8804 81.0645 64.3079 81.1236 64.7328 81.1236C65.5107 81.1236 66.2801 80.9254 66.9783 80.5363C68.0579 79.9347 68.8386 78.9486 69.1766 77.7596C69.2036 77.6647 69.2275 77.5698 69.2482 77.4749L78.047 75.0371C79.3178 74.603 80.9859 74.4466 81.7287 76.1573C82.4974 78.1657 80.4994 79.2706 79.98 79.5183Z" fill="white"/>
<path d="M72.0773 44.4139C72.0621 44.3389 72.0398 44.265 72.0094 44.1935C71.9801 44.1232 71.9449 44.0552 71.9016 43.992C71.8594 43.9275 71.8102 43.8677 71.7563 43.8138C71.7023 43.7599 71.6426 43.7107 71.5781 43.6685C71.5148 43.6263 71.4469 43.59 71.3766 43.5607C71.3051 43.5314 71.2312 43.5079 71.1574 43.4939C71.0062 43.4634 70.8504 43.4634 70.6992 43.4939C70.6242 43.5079 70.5504 43.5314 70.4801 43.5607C70.4086 43.59 70.3406 43.6263 70.2773 43.6685C70.2129 43.7107 70.1531 43.7599 70.0992 43.8138C70.0453 43.8677 69.9961 43.9275 69.9539 43.992C69.9117 44.0552 69.8754 44.1232 69.8461 44.1935C69.8168 44.265 69.7934 44.3389 69.7793 44.4139C69.7641 44.4889 69.7559 44.5662 69.7559 44.6424C69.7559 44.7186 69.7641 44.7959 69.7793 44.8709C69.7934 44.9459 69.8168 45.0198 69.8461 45.0901C69.8754 45.1616 69.9117 45.2296 69.9539 45.2928C69.9961 45.3573 70.0453 45.4171 70.0992 45.471C70.1531 45.5249 70.2129 45.5741 70.2773 45.6163C70.3406 45.6585 70.4086 45.6948 70.4801 45.7241C70.5504 45.7534 70.6242 45.7757 70.6992 45.7909C70.7742 45.8062 70.8516 45.8144 70.9277 45.8144C71.0039 45.8144 71.0812 45.8062 71.1574 45.7909C71.2312 45.7757 71.3051 45.7534 71.3766 45.7241C71.4469 45.6948 71.5148 45.6585 71.5781 45.6163C71.6426 45.5741 71.7023 45.5249 71.7563 45.471C71.8102 45.4171 71.8594 45.3573 71.9016 45.2928C71.9449 45.2296 71.9801 45.1616 72.0094 45.0901C72.0398 45.0198 72.0621 44.9459 72.0773 44.8709C72.0926 44.7959 72.0996 44.7186 72.0996 44.6424C72.0996 44.5662 72.0926 44.4889 72.0773 44.4139Z" fill="white"/>
<path d="M88.8281 32.9692H81.8605C81.2133 32.9692 80.6886 33.4939 80.6886 34.1412V35.1531H77.4211C76.7739 35.1531 76.2492 35.6778 76.2492 36.3251V36.6624C74.3445 36.4961 73.718 36.1349 71.9687 35.126C70.6234 34.3502 68.5901 33.1776 64.9283 31.5311C64.9113 31.5234 64.8942 31.5162 64.8768 31.5094C63.6848 31.0404 60.561 30.1176 57.2245 31.6298L52.5089 33.3184L48.534 29.3432C48.0764 28.8856 47.3344 28.8856 46.8768 29.3432L33.827 42.3941C33.4049 42.8163 33.3239 43.5485 33.827 44.0516L56.1262 66.3529C56.4831 66.7099 57.3186 66.8178 57.7836 66.3529L69.6975 54.438C70.0072 54.4648 70.3287 54.4792 70.6618 54.4792C73.7235 54.4792 76.4317 52.3788 77.981 50.0894H88.8281C89.4754 50.0894 90 49.5647 90 48.9174V34.1412C90 33.4939 89.4754 32.9692 88.8281 32.9692ZM47.7053 31.8294L50.3762 34.5005C49.5823 34.9916 48.6643 35.2544 47.7053 35.2544C46.7461 35.2544 45.8283 34.9917 45.0343 34.5005L47.7053 31.8294ZM38.9839 45.8941L36.313 43.2228L38.9839 40.5516C39.475 41.3456 39.7377 42.2636 39.7377 43.2228C39.7377 44.1819 39.4751 45.0999 38.9839 45.8941ZM56.955 63.8666L54.2845 61.1959C55.915 60.1897 57.9948 60.1897 59.6253 61.1959L56.955 63.8666ZM61.3138 59.5076C58.7242 57.6289 55.1858 57.6289 52.5962 59.5076L40.6723 47.5824C41.5874 46.3237 42.0814 44.8118 42.0814 43.2228C42.0814 41.6337 41.5875 40.1218 40.6723 38.8631L43.3461 36.1891C44.6047 37.1043 46.1164 37.5984 47.7054 37.5984C49.2943 37.5984 50.8061 37.1043 52.0646 36.1891L54.5993 38.724C54.0524 38.8048 53.5191 38.985 53.0217 39.2622C52.1817 39.7303 51.5227 40.4312 51.1123 41.2793C49.7904 41.5241 48.5666 42.1641 47.6066 43.1241C45.0021 45.7289 45.0021 49.9672 47.6067 52.572C48.9089 53.8743 50.6195 54.5256 52.3302 54.5256C54.0408 54.5256 55.7515 53.8744 57.0538 52.572C57.9011 51.7247 58.4946 50.6833 58.7919 49.5483L62.7486 50.8913C62.3032 52.9549 62.7594 55.1259 63.99 56.8311L61.3138 59.5076ZM54.189 47.9855C54.1993 47.9892 54.2096 47.993 54.2201 47.9965L56.5634 48.7919C56.3864 49.5906 55.986 50.325 55.3965 50.9146C53.7057 52.6053 50.9546 52.6055 49.2641 50.9146C47.5733 49.2238 47.5733 46.4726 49.2641 44.7816C49.6719 44.3735 50.1532 44.0547 50.6776 43.8384C50.8939 45.6388 52.1902 47.2436 54.189 47.9855ZM65.6786 55.1423C65.2262 54.4051 64.9703 53.5638 64.9298 52.705C65.4912 53.1109 66.1772 53.5086 66.9966 53.8242L65.6786 55.1423ZM76.2491 48.4502C75.1384 50.2712 72.9843 52.135 70.6618 52.135C70.2273 52.135 69.8201 52.1041 69.4393 52.049C69.4378 52.0487 69.4363 52.0485 69.4348 52.0483C66.904 51.6806 65.5426 50.2421 65.0939 49.6725C65.07 49.6374 64.9682 49.5041 64.953 49.482C64.8165 49.238 64.5927 49.0418 64.3072 48.9449L54.9899 45.7823C53.503 45.2242 52.717 43.9508 53.0773 42.6809C53.0775 42.68 53.0777 42.6792 53.078 42.6784C53.0783 42.6775 53.0786 42.6764 53.0788 42.6755C53.2462 42.0906 53.6309 41.6056 54.1624 41.3094C54.6905 41.0151 55.3009 40.9421 55.8831 41.1035L66.3823 44.4309C66.9994 44.6267 67.658 44.2847 67.8534 43.6677C68.0489 43.0506 67.7073 42.392 67.0903 42.1964L58.7401 39.55L58.6672 39.4771C58.6665 39.4764 58.6658 39.4756 58.665 39.4749L54.342 35.1515L58.0577 33.8208C58.0703 33.8162 58.0857 33.8105 58.0982 33.8054C58.1013 33.8042 58.1074 33.8018 58.1105 33.8005C58.1264 33.7941 58.1421 33.7873 58.1577 33.7801C60.6697 32.6255 63.0575 33.3166 63.9935 33.6806C67.5306 35.2723 69.4185 36.3609 70.7978 37.1564C72.7154 38.2624 73.6395 38.7953 76.2491 39.0108V48.4502ZM80.6886 47.7452H78.593V37.4971H80.6886V47.7452ZM87.6562 47.7452H83.0324V35.3132H87.6562V47.7452Z" fill="white"/>
</svg>
