<svg width="43" height="50" viewBox="0 0 43 50" fill="none" xmlns="http://www.w3.org/2000/svg">
<path d="M42.9499 13.5663L42.9484 13.5274C42.9264 13.0471 42.9118 12.539 42.9029 11.9736C42.8617 9.21677 40.6484 6.93635 37.8638 6.78223C32.058 6.46142 27.5667 4.58688 23.7292 0.883196L23.6965 0.852297C22.4448 -0.284099 20.5567 -0.284099 19.3046 0.852297L19.2719 0.883196C15.4344 4.58688 10.9431 6.46142 5.13733 6.78261C2.35311 6.93635 0.139444 9.21677 0.0982215 11.974C0.0897459 12.5355 0.074721 13.0437 0.0527616 13.5274L0.0504502 13.6178C-0.0624289 19.4798 -0.202661 26.7754 2.26219 33.3973C3.61751 37.0388 5.67013 40.2043 8.36266 42.8063C11.4293 45.7695 15.4459 48.122 20.3009 49.7982C20.4588 49.8528 20.6229 49.897 20.7901 49.9302C21.0259 49.9767 21.2632 50 21.5006 50C21.7379 50 21.9756 49.9767 22.211 49.9302C22.3782 49.897 22.5434 49.8524 22.7022 49.7974C27.5513 48.1182 31.5637 45.7646 34.6277 42.8017C37.319 40.1989 39.3717 37.0327 40.7281 33.3905C43.2022 26.7487 43.0624 19.4394 42.9499 13.5663ZM37.9482 32.3754C35.3485 39.3547 30.0416 44.1479 21.7244 47.028C21.6947 47.0379 21.6631 47.0467 21.6304 47.0532C21.5445 47.0699 21.457 47.0699 21.37 47.0528C21.3376 47.0463 21.306 47.0379 21.2767 47.028C12.9506 44.1532 7.64032 39.3627 5.04256 32.383C2.77072 26.2791 2.89939 19.582 3.01304 13.6739L3.01381 13.641C3.03693 13.1333 3.05234 12.6015 3.06082 12.0171C3.07931 10.793 4.06401 9.7802 5.3026 9.71192C8.58804 9.53034 11.4744 8.90167 14.1264 7.79007C16.775 6.68 19.1274 5.11521 21.3172 3.00645C21.4285 2.91337 21.573 2.91299 21.6839 3.00645C23.8741 5.11521 26.2265 6.68 28.8747 7.79007C31.5268 8.90167 34.4131 9.53034 37.6989 9.71192C38.9375 9.7802 39.9222 10.793 39.9403 12.0175C39.9492 12.605 39.9646 13.1367 39.9877 13.641C40.1009 19.5561 40.2265 26.2585 37.9482 32.3754Z" fill="white"/>
<path d="M21.4998 12.5402C14.5607 12.5402 8.91553 18.1302 8.91553 25.0009C8.91553 31.8719 14.5607 37.462 21.4998 37.462C28.4387 37.462 34.0842 31.8719 34.0842 25.0009C34.0842 18.1302 28.4387 12.5402 21.4998 12.5402ZM21.4998 34.5277C16.1945 34.5277 11.8785 30.2541 11.8785 25.0009C11.8785 19.7477 16.1945 15.474 21.4998 15.474C26.8048 15.474 31.1208 19.7477 31.1208 25.0009C31.1208 30.2541 26.8048 34.5277 21.4998 34.5277Z" fill="white"/>
<path d="M25.1166 21.1324L19.2715 26.9201L17.6851 25.3492C17.1064 24.7762 16.1683 24.7762 15.5897 25.3492C15.0114 25.9221 15.0114 26.851 15.5897 27.4236L18.224 30.0321C18.5134 30.3186 18.8924 30.4616 19.2715 30.4616C19.6506 30.4616 20.0297 30.3186 20.319 30.0321L27.212 23.2068C27.7903 22.6339 27.7903 21.705 27.212 21.1324C26.6334 20.559 25.6953 20.559 25.1166 21.1324Z" fill="white"/>
</svg>
