<svg width="66" height="45" viewBox="0 0 66 45" fill="none" xmlns="http://www.w3.org/2000/svg">
<path d="M64.9 35.122H63.8V23.0488C63.7971 20.4299 62.7531 17.9191 60.8971 16.0672C59.0412 14.2153 56.5248 13.1737 53.9 13.1708H46.2V1.09756C46.2 0.806472 46.0841 0.527301 45.8778 0.321468C45.6715 0.115635 45.3917 0 45.1 0H1.1C0.808262 0 0.528473 0.115635 0.322182 0.321468C0.115892 0.527301 0 0.806472 0 1.09756V36.2196C0 36.5107 0.115892 36.7899 0.322182 36.9957C0.528473 37.2015 0.808262 37.3172 1.1 37.3172H2.2V38.4147C2.2 39.288 2.54768 40.1255 3.16655 40.743C3.78542 41.3605 4.62479 41.7074 5.5 41.7074H10.7932C11.3705 42.7082 12.202 43.5396 13.2039 44.1176C14.2058 44.6956 15.3427 45 16.5 45C17.6573 45 18.7942 44.6956 19.7961 44.1176C20.798 43.5396 21.6295 42.7082 22.2068 41.7074H48.1932C48.7705 42.7082 49.602 43.5396 50.6039 44.1176C51.6058 44.6956 52.7427 45 53.9 45C55.0573 45 56.1942 44.6956 57.1961 44.1176C58.198 43.5396 59.0295 42.7082 59.6068 41.7074H62.7C63.5752 41.7074 64.4146 41.3605 65.0335 40.743C65.6523 40.1255 66 39.288 66 38.4147V36.2196C66 35.9285 65.8841 35.6493 65.6778 35.4435C65.4715 35.2377 65.1917 35.122 64.9 35.122ZM61.6 23.0488V25.244H51.7C51.4083 25.244 51.1285 25.1283 50.9222 24.9225C50.7159 24.7167 50.6 24.4375 50.6 24.1464V15.3659H53.9C55.9415 15.3682 57.8986 16.1784 59.3422 17.6187C60.7857 19.0591 61.5977 21.0119 61.6 23.0488ZM48.4 15.3659V24.1464C48.4 25.0197 48.7477 25.8572 49.3666 26.4747C49.9854 27.0922 50.8248 27.4391 51.7 27.4391H61.6V35.122H59.6068C59.0295 34.1212 58.198 33.2899 57.1961 32.7119C56.1942 32.1338 55.0573 31.8295 53.9 31.8295C52.7427 31.8295 51.6058 32.1338 50.6039 32.7119C49.602 33.2899 48.7705 34.1212 48.1932 35.122H46.2V15.3659H48.4ZM22.2068 35.122C21.6295 34.1212 20.798 33.2899 19.7961 32.7119C18.7942 32.1338 17.6573 31.8295 16.5 31.8295C15.3427 31.8295 14.2058 32.1338 13.2039 32.7119C12.202 33.2899 11.3705 34.1212 10.7932 35.122H2.2V30.7318H44V35.122H22.2068ZM2.2 2.19513H44V28.5367H2.2V2.19513ZM5.5 39.5123C5.20826 39.5123 4.92847 39.3967 4.72218 39.1908C4.51589 38.985 4.4 38.7058 4.4 38.4147V37.3172H9.999C9.86699 38.043 9.86699 38.7865 9.999 39.5123H5.5ZM16.5 42.805C15.6298 42.805 14.7791 42.5475 14.0555 42.0651C13.3319 41.5827 12.768 40.897 12.4349 40.0948C12.1019 39.2926 12.0148 38.4099 12.1845 37.5582C12.3543 36.7066 12.7734 35.9243 13.3887 35.3104C14.0041 34.6964 14.7881 34.2782 15.6416 34.1088C16.4951 33.9394 17.3798 34.0264 18.1838 34.3587C18.9878 34.691 19.675 35.2537 20.1585 35.9756C20.6419 36.6976 20.9 37.5464 20.9 38.4147C20.9 39.5791 20.4364 40.6958 19.6113 41.5191C18.7861 42.3425 17.667 42.805 16.5 42.805ZM23.001 39.5123C23.133 38.7865 23.133 38.043 23.001 37.3172H47.399C47.267 38.043 47.267 38.7865 47.399 39.5123H23.001ZM53.9 42.805C53.0298 42.805 52.1791 42.5475 51.4555 42.0651C50.7319 41.5827 50.168 40.897 49.8349 40.0948C49.5019 39.2926 49.4148 38.4099 49.5845 37.5582C49.7543 36.7066 50.1734 35.9243 50.7887 35.3104C51.4041 34.6964 52.1881 34.2782 53.0416 34.1088C53.8951 33.9394 54.7798 34.0264 55.5838 34.3587C56.3878 34.691 57.075 35.2537 57.5585 35.9756C58.0419 36.6976 58.3 37.5464 58.3 38.4147C58.3 39.5791 57.8364 40.6958 57.0113 41.5191C56.1861 42.3425 55.067 42.805 53.9 42.805ZM63.8 38.4147C63.8 38.7058 63.6841 38.985 63.4778 39.1908C63.2715 39.3967 62.9917 39.5123 62.7 39.5123H60.401C60.533 38.7865 60.533 38.043 60.401 37.3172H63.8V38.4147Z" fill="white"/>
<path d="M8.8 18.6586C9.09174 18.6586 9.37153 18.543 9.57782 18.3371C9.78411 18.1313 9.9 17.8521 9.9 17.561V14.2683H12.1C12.3917 14.2683 12.6715 14.1527 12.8778 13.9469C13.0841 13.741 13.2 13.4619 13.2 13.1708C13.2 12.8797 13.0841 12.6005 12.8778 12.3947C12.6715 12.1888 12.3917 12.0732 12.1 12.0732H9.9V9.87808H13.2C13.4917 9.87808 13.7715 9.76244 13.9778 9.55661C14.1841 9.35077 14.3 9.0716 14.3 8.78051C14.3 8.48942 14.1841 8.21025 13.9778 8.00442C13.7715 7.79858 13.4917 7.68295 13.2 7.68295H8.8C8.50826 7.68295 8.22847 7.79858 8.02218 8.00442C7.81589 8.21025 7.7 8.48942 7.7 8.78051V17.561C7.7 17.8521 7.81589 18.1313 8.02218 18.3371C8.22847 18.543 8.50826 18.6586 8.8 18.6586Z" fill="white"/>
<path d="M16.5 18.6586C16.7917 18.6586 17.0715 18.543 17.2778 18.3371C17.4841 18.1313 17.6 17.8521 17.6 17.561V15.0004L20.02 18.2196C20.195 18.4524 20.4556 18.6064 20.7444 18.6476C21.0332 18.6887 21.3266 18.6137 21.56 18.4391C21.7934 18.2644 21.9477 18.0044 21.9889 17.7162C22.0302 17.4281 21.955 17.1354 21.78 16.9025L19.6768 14.1048C20.4302 13.8729 21.0751 13.3788 21.4942 12.7125C21.9133 12.0462 22.0787 11.2519 21.9604 10.4741C21.8421 9.69634 21.4479 8.98679 20.8495 8.47455C20.2512 7.96231 19.4884 7.6814 18.7 7.68295H16.5C16.2083 7.68295 15.9285 7.79858 15.7222 8.00442C15.5159 8.21025 15.4 8.48942 15.4 8.78051V17.561C15.4 17.8521 15.5159 18.1313 15.7222 18.3371C15.9285 18.543 16.2083 18.6586 16.5 18.6586ZM19.8 10.9756C19.8 11.2667 19.6841 11.5459 19.4778 11.7517C19.2715 11.9576 18.9917 12.0732 18.7 12.0732H17.6V9.87808H18.7C18.9917 9.87808 19.2715 9.99371 19.4778 10.1995C19.6841 10.4054 19.8 10.6845 19.8 10.9756Z" fill="white"/>
<path d="M25.3 18.6586H29.7C29.9917 18.6586 30.2715 18.543 30.4778 18.3371C30.6841 18.1313 30.8 17.8521 30.8 17.561C30.8 17.2699 30.6841 16.9908 30.4778 16.7849C30.2715 16.5791 29.9917 16.4635 29.7 16.4635H26.4V14.2683H28.6C28.8917 14.2683 29.1715 14.1527 29.3778 13.9469C29.5841 13.741 29.7 13.4619 29.7 13.1708C29.7 12.8797 29.5841 12.6005 29.3778 12.3947C29.1715 12.1888 28.8917 12.0732 28.6 12.0732H26.4V9.87808H29.7C29.9917 9.87808 30.2715 9.76244 30.4778 9.55661C30.6841 9.35077 30.8 9.0716 30.8 8.78051C30.8 8.48942 30.6841 8.21025 30.4778 8.00442C30.2715 7.79858 29.9917 7.68295 29.7 7.68295H25.3C25.0083 7.68295 24.7285 7.79858 24.5222 8.00442C24.3159 8.21025 24.2 8.48942 24.2 8.78051V17.561C24.2 17.8521 24.3159 18.1313 24.5222 18.3371C24.7285 18.543 25.0083 18.6586 25.3 18.6586Z" fill="white"/>
<path d="M33 18.6586H37.4C37.6917 18.6586 37.9715 18.543 38.1778 18.3371C38.3841 18.1313 38.5 17.8521 38.5 17.561C38.5 17.2699 38.3841 16.9908 38.1778 16.7849C37.9715 16.5791 37.6917 16.4635 37.4 16.4635H34.1V14.2683H36.3C36.5917 14.2683 36.8715 14.1527 37.0778 13.9469C37.2841 13.741 37.4 13.4619 37.4 13.1708C37.4 12.8797 37.2841 12.6005 37.0778 12.3947C36.8715 12.1888 36.5917 12.0732 36.3 12.0732H34.1V9.87808H37.4C37.6917 9.87808 37.9715 9.76244 38.1778 9.55661C38.3841 9.35077 38.5 9.0716 38.5 8.78051C38.5 8.48942 38.3841 8.21025 38.1778 8.00442C37.9715 7.79858 37.6917 7.68295 37.4 7.68295H33C32.7083 7.68295 32.4285 7.79858 32.2222 8.00442C32.0159 8.21025 31.9 8.48942 31.9 8.78051V17.561C31.9 17.8521 32.0159 18.1313 32.2222 18.3371C32.4285 18.543 32.7083 18.6586 33 18.6586Z" fill="white"/>
<path d="M40.7 20.8537H5.5C5.20826 20.8537 4.92847 20.9694 4.72218 21.1752C4.51589 21.381 4.4 21.6602 4.4 21.9513C4.4 22.2424 4.51589 22.5215 4.72218 22.7274C4.92847 22.9332 5.20826 23.0488 5.5 23.0488H40.7C40.9917 23.0488 41.2715 22.9332 41.4778 22.7274C41.6841 22.5215 41.8 22.2424 41.8 21.9513C41.8 21.6602 41.6841 21.381 41.4778 21.1752C41.2715 20.9694 40.9917 20.8537 40.7 20.8537Z" fill="white"/>
</svg>
