<svg width="20" height="20" viewBox="0 0 20 20" fill="none" xmlns="http://www.w3.org/2000/svg">
<rect x="0.5" y="11.5" width="8" height="8" rx="1.5" stroke="#02A64F"/>
<rect x="0.5" y="0.5" width="8" height="8" rx="1.5" stroke="#02A64F"/>
<rect x="11.5" y="0.5" width="8" height="8" rx="1.5" stroke="#02A64F"/>
<path fill-rule="evenodd" clip-rule="evenodd" d="M13 12H18C18.5523 12 19 12.4477 19 13V14H20V13C20 11.8954 19.1046 11 18 11H13C11.8954 11 11 11.8954 11 13V18C11 19.1046 11.8954 20 13 20H18C19.1046 20 20 19.1046 20 18V17H19V18C19 18.5523 18.5523 19 18 19H13C12.4477 19 12 18.5523 12 18V13C12 12.4477 12.4477 12 13 12Z" fill="#02A64F"/>
</svg>
