<svg width="50" height="29" viewBox="0 0 50 29" fill="none" xmlns="http://www.w3.org/2000/svg">
<path fill-rule="evenodd" clip-rule="evenodd" d="M50 18.3047C50 14.837 48.3302 11.7593 45.7508 9.83184C40.1522 2.17787 31.8666 0.0502167 28 0C34.9685 1.32986 37.0699 5.07778 37.3457 7.93976C32.5059 8.90748 28.8594 13.1802 28.8594 18.3047C28.8594 24.1425 33.5919 28.875 39.4297 28.875C45.2675 28.875 50 24.1425 50 18.3047ZM22 18.3047C22 14.837 20.3302 11.7593 17.7508 9.83184C12.1522 2.17787 3.86661 0.0502167 0 0C6.96847 1.32986 9.06995 5.07778 9.34571 7.93976C4.50593 8.90748 0.859375 13.1802 0.859375 18.3047C0.859375 24.1425 5.59187 28.875 11.4297 28.875C17.2675 28.875 22 24.1425 22 18.3047Z" fill="white"/>
</svg>
