<svg width="63" height="55" viewBox="0 0 63 55" fill="none" xmlns="http://www.w3.org/2000/svg">
<circle cx="51" cy="13" r="12" fill="#03AD53"/>
<path d="M54.4427 11.8948L33.0221 0.132494C32.7003 -0.0441647 32.31 -0.0441647 31.9882 0.132494L23.9143 4.56575C23.744 4.61065 23.5849 4.69625 23.4532 4.8192L10.568 11.8948C10.2243 12.0832 10.0108 12.4441 10.0108 12.8364V27.0623C7.83714 27.7421 5.84521 28.9409 4.18899 30.5976C-0.128034 34.9142 -1.22869 41.498 1.45015 46.9803C1.71031 47.5132 2.35358 47.7343 2.88649 47.4737C3.41983 47.2132 3.64055 46.5699 3.38038 46.037C1.10438 41.3788 2.03971 35.7849 5.708 32.1166C8.00205 29.8225 11.0518 28.5591 14.2959 28.5591C17.5399 28.5591 20.5897 29.8225 22.8838 32.1166C25.1774 34.4102 26.4409 37.46 26.4409 40.7041C26.4409 43.9481 25.1774 46.9979 22.8833 49.2919C19.2151 52.9602 13.6211 53.8956 8.96297 51.6196C8.43006 51.359 7.78678 51.5801 7.52662 52.113C7.26604 52.6464 7.48676 53.2896 8.02009 53.5498C10.017 54.5258 12.1596 55 14.2867 55C17.9973 54.9996 21.6585 53.5553 24.4028 50.811C25.6612 49.5525 26.6557 48.1007 27.3594 46.5225L31.9882 49.0641C32.1493 49.1526 32.3272 49.1967 32.5052 49.1967C32.6831 49.1967 32.8614 49.1526 33.0221 49.0641L54.4427 37.3022C54.7864 37.1134 55 36.7525 55 36.3606V28.8952C55 28.3018 54.5191 27.821 53.9258 27.821C53.3324 27.821 52.8516 28.3018 52.8516 28.8952V35.7249L33.5827 46.3055V25.2323L39.942 21.7403V27.2759C39.942 27.656 40.1426 28.0077 40.4695 28.2007C40.6382 28.3002 40.827 28.3501 41.0163 28.3501C41.1942 28.3501 41.3725 28.306 41.5341 28.2171L46.1243 25.6906C46.4675 25.5017 46.6802 25.1413 46.6802 24.7498V18.0401L52.8516 14.6517V20.3018C52.8516 20.8952 53.3324 21.3761 53.9258 21.3761C54.5191 21.3761 55 20.8952 55 20.3018V12.8364C55 12.4445 54.7864 12.0832 54.4427 11.8948ZM32.5052 2.2994L51.6938 12.8364L45.6409 16.1602L26.4522 5.62319L32.5052 2.2994ZM32.5052 23.373L13.3165 12.8364L19.5915 9.39052L38.7805 19.9271L32.5052 23.373ZM41.0121 18.7018L21.8234 8.16523L24.2202 6.84889L43.4093 17.3855L41.0121 18.7018ZM24.4028 30.5976C21.703 27.8977 18.1136 26.411 14.2959 26.411C13.5737 26.411 12.8604 26.4643 12.1592 26.5688V14.6517L31.4347 25.2361V46.3093L28.0891 44.4722C28.4185 43.2595 28.5889 41.9948 28.5889 40.7041C28.5889 36.8864 27.1022 33.297 24.4028 30.5976ZM44.5322 24.1149L42.0905 25.4589V20.5607L44.5322 19.2201V24.1149Z" fill="#3D505A"/>
<path d="M53.9258 23.519C53.6434 23.519 53.366 23.634 53.1663 23.8338C52.9665 24.0335 52.8516 24.3104 52.8516 24.5933C52.8516 24.8757 52.9665 25.1526 53.1663 25.3523C53.366 25.5525 53.6434 25.6671 53.9258 25.6671C54.2082 25.6671 54.4855 25.5525 54.6853 25.3523C54.885 25.1526 55 24.8757 55 24.5933C55 24.3104 54.885 24.0335 54.6853 23.8338C54.4855 23.634 54.2082 23.519 53.9258 23.519Z" fill="#3D505A"/>
<path d="M10.6838 41.7783C10.9587 41.7783 11.2339 41.6734 11.4433 41.464C11.8629 41.0444 11.8629 40.3642 11.4433 39.9445L10.6993 39.2001H17.0482C18.5881 39.2001 19.8411 40.4531 19.8411 41.9931C19.8411 43.5331 18.5881 44.7861 17.0482 44.7861H13.2863C12.6929 44.7861 12.2121 45.267 12.2121 45.8603C12.2121 46.4532 12.6929 46.9341 13.2863 46.9341H17.0482C19.7727 46.9341 21.9896 44.7177 21.9896 41.9931C21.9896 39.2685 19.7727 37.0521 17.0482 37.0521H10.6993L11.4433 36.3077C11.8629 35.8881 11.8629 35.2079 11.4433 34.7883C11.0241 34.3691 10.3439 34.3691 9.92431 34.7883L7.34619 37.3664C6.92699 37.786 6.92699 38.4662 7.34619 38.8859L9.92431 41.4636C10.1341 41.6734 10.409 41.7783 10.6838 41.7783Z" fill="#3D505A"/>
<path d="M4.94933 51.1274C4.64385 51.1274 4.34047 50.9973 4.12856 50.7451L4.12646 50.7426C3.74461 50.2885 3.80336 49.6113 4.25738 49.2294C4.71141 48.8472 5.38909 48.9059 5.77094 49.3599C6.15237 49.8144 6.09489 50.4929 5.64086 50.8747C5.43903 51.0443 5.19355 51.1274 4.94933 51.1274Z" fill="#3D505A"/>
</svg>
