<svg width="49" height="53" viewBox="0 0 49 53" fill="none" xmlns="http://www.w3.org/2000/svg">
<circle cx="12" cy="12" r="12" fill="#03AD53"/>
<path d="M48.9499 16.5663L48.9484 16.5274C48.9264 16.0471 48.9118 15.539 48.9029 14.9736C48.8617 12.2168 46.6484 9.93635 43.8638 9.78223C38.058 9.46142 33.5667 7.58688 29.7292 3.8832L29.6965 3.8523C28.4448 2.7159 26.5567 2.7159 25.3046 3.8523L25.2719 3.8832C21.4344 7.58688 16.9431 9.46142 11.1373 9.78261C8.35311 9.93635 6.13944 12.2168 6.09822 14.974C6.08975 15.5355 6.07472 16.0437 6.05276 16.5274L6.05045 16.6178C5.93757 22.4798 5.79734 29.7754 8.26219 36.3973C9.61751 40.0388 11.6701 43.2043 14.3627 45.8063C17.4293 48.7695 21.4459 51.122 26.3009 52.7982C26.4588 52.8528 26.6229 52.897 26.7901 52.9302C27.0259 52.9767 27.2632 53 27.5006 53C27.7379 53 27.9756 52.9767 28.211 52.9302C28.3782 52.897 28.5434 52.8524 28.7022 52.7974C33.5513 51.1182 37.5637 48.7646 40.6277 45.8017C43.319 43.1989 45.3717 40.0327 46.7281 36.3905C49.2022 29.7487 49.0624 22.4394 48.9499 16.5663ZM43.9482 35.3754C41.3485 42.3547 36.0416 47.1479 27.7244 50.028C27.6947 50.0379 27.6631 50.0467 27.6304 50.0532C27.5445 50.0699 27.457 50.0699 27.37 50.0528C27.3376 50.0463 27.306 50.0379 27.2767 50.028C18.9506 47.1532 13.6403 42.3627 11.0426 35.383C8.77072 29.2791 8.89939 22.582 9.01304 16.6739L9.01381 16.641C9.03693 16.1333 9.05234 15.6015 9.06082 15.0171C9.07931 13.793 10.064 12.7802 11.3026 12.7119C14.588 12.5303 17.4744 11.9017 20.1264 10.7901C22.775 9.68 25.1274 8.11521 27.3172 6.00645C27.4285 5.91337 27.573 5.91299 27.6839 6.00645C29.8741 8.11521 32.2265 9.68 34.8747 10.7901C37.5268 11.9017 40.4131 12.5303 43.6989 12.7119C44.9375 12.7802 45.9222 13.793 45.9403 15.0175C45.9492 15.605 45.9646 16.1367 45.9877 16.641C46.1009 22.5561 46.2265 29.2585 43.9482 35.3754Z" fill="#3E495A"/>
<path d="M27.4998 15.5402C20.5607 15.5402 14.9155 21.1302 14.9155 28.0009C14.9155 34.8719 20.5607 40.462 27.4998 40.462C34.4387 40.462 40.0842 34.8719 40.0842 28.0009C40.0842 21.1302 34.4387 15.5402 27.4998 15.5402ZM27.4998 37.5277C22.1945 37.5277 17.8785 33.2541 17.8785 28.0009C17.8785 22.7477 22.1945 18.474 27.4998 18.474C32.8048 18.474 37.1208 22.7477 37.1208 28.0009C37.1208 33.2541 32.8048 37.5277 27.4998 37.5277Z" fill="#3E495A"/>
<path d="M31.1166 24.1324L25.2715 29.9201L23.6851 28.3492C23.1064 27.7762 22.1683 27.7762 21.5897 28.3492C21.0114 28.9221 21.0114 29.851 21.5897 30.4236L24.224 33.0321C24.5134 33.3186 24.8924 33.4616 25.2715 33.4616C25.6506 33.4616 26.0297 33.3186 26.319 33.0321L33.212 26.2068C33.7903 25.6339 33.7903 24.705 33.212 24.1324C32.6334 23.559 31.6953 23.559 31.1166 24.1324Z" fill="#3E495A"/>
</svg>
