<svg width="46" height="46" viewBox="0 0 46 46" fill="none" xmlns="http://www.w3.org/2000/svg">
<circle cx="33.5" cy="26.5" r="9.5" fill="#03AD53"/>
<path d="M19.9333 14.5667C18.6653 14.5667 17.6333 15.5986 17.6333 16.8667H19.1667C19.1667 16.4442 19.5101 16.1 19.9333 16.1C20.3565 16.1 20.7 16.4442 20.7 16.8667H22.2333C22.2333 15.5986 21.2014 14.5667 19.9333 14.5667Z" fill="#3E495A"/>
<path d="M26.0667 14.5667C24.7986 14.5667 23.7667 15.5986 23.7667 16.8667H25.3C25.3 16.4442 25.6435 16.1 26.0667 16.1C26.4899 16.1 26.8333 16.4442 26.8333 16.8667H28.3667C28.3667 15.5986 27.3347 14.5667 26.0667 14.5667Z" fill="#3E495A"/>
<path d="M23 35.2667C21.3087 35.2667 19.9333 36.6421 19.9333 38.3333C19.9333 40.0246 21.3087 41.4 23 41.4C24.6913 41.4 26.0667 40.0246 26.0667 38.3333C26.0667 36.6421 24.6913 35.2667 23 35.2667ZM23 39.8667C22.1544 39.8667 21.4667 39.179 21.4667 38.3333C21.4667 37.4877 22.1544 36.8 23 36.8C23.8456 36.8 24.5333 37.4877 24.5333 38.3333C24.5333 39.179 23.8456 39.8667 23 39.8667Z" fill="#3E495A"/>
<path d="M41.4 44.4667V34.5C41.4 28.1589 36.2411 23 29.9 23H29.0651C29.338 22.76 29.5949 22.504 29.8379 22.2333H30.6667C32.7804 22.2333 34.5 20.5137 34.5 18.4V17.0491C35.4238 16.4297 36.0333 15.3763 36.0333 14.1833C36.0333 12.9858 35.4192 11.9309 34.4908 11.3122C34.3888 5.05847 29.2782 0 23 0C16.7218 0 11.6112 5.05847 11.5092 11.3122C10.5808 11.9309 9.96667 12.9858 9.96667 14.1833C9.96667 16.0854 11.5146 17.6333 13.4167 17.6333H13.9388C14.2976 19.7578 15.3832 21.6338 16.9357 23H16.1C9.7589 23 4.6 28.1589 4.6 34.5V44.4667H0V46H46V44.4667H41.4ZM32.9667 18.4C32.9667 19.563 32.0957 20.5168 30.9741 20.6686C31.5054 19.7447 31.878 18.7212 32.0612 17.6333H32.5833C32.7144 17.6333 32.8394 17.6088 32.9667 17.5942V18.4ZM34.5 14.1833C34.5 15.2398 33.6406 16.1 32.5833 16.1H32.2V12.2667H32.5833C33.6406 12.2667 34.5 13.1269 34.5 14.1833ZM13.8 16.1H13.4167C12.3594 16.1 11.5 15.2398 11.5 14.1833C11.5 13.1269 12.3594 12.2667 13.4167 12.2667H13.8V16.1ZM13.4167 10.7333C13.2978 10.7333 13.1859 10.7563 13.0701 10.7686C13.4473 5.6143 17.7514 1.53333 23 1.53333C28.2486 1.53333 32.5527 5.6143 32.9299 10.7686C32.8141 10.7563 32.7022 10.7333 32.5833 10.7333H32.0612C31.3283 6.3894 27.5494 3.06667 23 3.06667C18.4506 3.06667 14.6717 6.3894 13.9388 10.7333H13.4167ZM30.6659 12.2475C25.1329 12.0528 21.4667 9.79033 21.4667 7.66667C21.4667 7.24347 21.124 6.9 20.7 6.9C20.276 6.9 19.9333 7.24347 19.9333 7.66667C19.9333 9.58257 17.9523 11.1703 15.3778 11.4517C15.7864 7.6061 19.0486 4.6 23 4.6C27.2205 4.6 30.6552 8.0293 30.6659 12.2475ZM15.3333 16.1V12.9904C17.7276 12.7826 19.7593 11.628 20.7736 10.0111C22.3775 12.1363 26.1257 13.6321 30.6667 13.7847V16.1C30.6667 17.8273 30.0855 19.4166 29.1188 20.7H23V22.2333H27.5801C27.14 22.563 26.6654 22.8467 26.1594 23.0767C24.1477 23.9905 21.8515 23.9905 19.839 23.0767C17.1864 21.8699 15.3333 19.2004 15.3333 16.1ZM20.6302 24.9795C21.3877 25.1819 22.1797 25.3 23 25.3C23.8203 25.3 24.6123 25.1819 25.3698 24.9795L23 29.7191L20.6302 24.9795ZM21.7595 30.6667H20.4071L17.3405 24.5333H18.6929L21.7595 30.6667ZM27.3071 24.5333H28.6595L25.5929 30.6667H24.2405L27.3071 24.5333ZM8.43333 34.5V44.4667H6.13333V34.5C6.13333 29.1602 10.3577 24.8009 15.6377 24.5571L18.6929 30.6667H12.2667C10.153 30.6667 8.43333 32.3863 8.43333 34.5ZM36.0333 44.4667H9.96667V34.5C9.96667 33.2319 10.9986 32.2 12.2667 32.2H33.7333C35.0014 32.2 36.0333 33.2319 36.0333 34.5V44.4667ZM39.8667 44.4667H37.5667V34.5C37.5667 32.3863 35.847 30.6667 33.7333 30.6667H27.3071L30.3623 24.5571C35.6423 24.8009 39.8667 29.1602 39.8667 34.5V44.4667Z" fill="#3E495A"/>
<path d="M34.5 37.5667H32.9667V42.9333H34.5V37.5667Z" fill="#3E495A"/>
<path d="M34.5 34.5H32.9667V36.0333H34.5V34.5Z" fill="#3E495A"/>
<path d="M41.4 6.9H39.8667V8.43333H41.4V6.9Z" fill="#3E495A"/>
<path d="M41.4 9.96667H39.8667V11.5H41.4V9.96667Z" fill="#3E495A"/>
<path d="M41.4 13.0333H39.8667V14.5667H41.4V13.0333Z" fill="#3E495A"/>
<path d="M6.13333 16.1H4.6V17.6333H6.13333V16.1Z" fill="#3E495A"/>
<path d="M6.13333 19.1667H4.6V20.7H6.13333V19.1667Z" fill="#3E495A"/>
<path d="M6.13333 22.2333H4.6V23.7667H6.13333V22.2333Z" fill="#3E495A"/>
</svg>
