<svg width="20" height="24" viewBox="0 0 20 24" fill="none" xmlns="http://www.w3.org/2000/svg">
<path d="M18.6587 6.16549C18.6365 5.90564 18.4155 5.70654 18.1522 5.70909H14.3027V4.26423C14.3027 1.9091 12.375 0 9.99743 0C7.61963 0 5.69213 1.9091 5.69213 4.26423V5.70909H1.84269C1.58054 5.71007 1.36171 5.90721 1.33619 6.16549L0.00918363 21.2761C-0.0511617 21.9766 0.187846 22.6704 0.668432 23.1883C1.14882 23.706 1.82647 24.0006 2.53657 24H17.4632C18.1733 24.0006 18.851 23.706 19.3314 23.1883C19.812 22.6704 20.0512 21.9766 19.9908 21.2761L18.6587 6.16549ZM6.70515 4.26423C6.70515 2.4633 8.17916 1.00335 9.99743 1.00335C11.8157 1.00335 13.2897 2.4633 13.2897 4.26423V5.70909H6.70515V4.26423ZM18.5827 22.5101C18.2962 22.8224 17.8892 22.9994 17.4632 22.9967H2.53142C2.10544 22.9968 1.69905 22.8199 1.41098 22.5091C1.1231 22.1981 0.980052 21.7817 1.01705 21.3613L2.30349 6.71244H5.69213V9.8428C4.87757 10.0911 4.36889 10.892 4.49571 11.7268C4.62234 12.5614 5.34648 13.1787 6.19864 13.1787C7.0508 13.1787 7.77474 12.5614 7.90157 11.7268C8.02819 10.892 7.51951 10.0911 6.70515 9.8428V6.70734H13.2897V9.8428C12.4752 10.0911 11.9665 10.892 12.0933 11.7268C12.2199 12.5614 12.9441 13.1787 13.7962 13.1787C14.6484 13.1787 15.3723 12.5614 15.4991 11.7268C15.6258 10.892 15.1171 10.0911 14.3027 9.8428V6.70734H17.6862L18.9727 21.3562C19.0142 21.7783 18.8724 22.1979 18.5827 22.5101V22.5101ZM6.12266 10.776C6.17312 10.7827 6.22416 10.7827 6.27462 10.776C6.64915 10.816 6.92694 11.1393 6.90676 11.5118C6.88638 11.8846 6.57535 12.1766 6.19864 12.1766C5.82173 12.1766 5.5107 11.8846 5.49052 11.5118C5.47034 11.1393 5.74793 10.816 6.12266 10.776ZM13.7202 10.776C13.7707 10.7827 13.8217 10.7827 13.8722 10.776C14.2467 10.816 14.5245 11.1393 14.5043 11.5118C14.484 11.8846 14.1729 12.1766 13.7962 12.1766C13.4193 12.1766 13.1083 11.8846 13.0881 11.5118C13.0679 11.1393 13.3455 10.816 13.7202 10.776V10.776Z" fill="black"/>
</svg>
