<svg width="34" height="34" viewBox="0 0 34 34" fill="none" xmlns="http://www.w3.org/2000/svg">
<path d="M12.4667 21.8841L14.1937 12.1699H16.8921L15.2191 21.8841H12.4667Z" fill="#3C58BF"/>
<path d="M12.4667 21.8841L14.6794 12.1699H16.8921L15.2191 21.8841H12.4667Z" fill="#293688"/>
<path d="M24.9874 12.2777C24.4477 12.0618 23.5842 11.846 22.5049 11.846C19.8064 11.846 17.8636 13.1952 17.8636 15.138C17.8636 16.5952 19.2128 17.3507 20.2922 17.8364C21.3715 18.3222 21.6953 18.646 21.6953 19.0777C21.6953 19.7253 20.8318 20.0491 20.0763 20.0491C18.9969 20.0491 18.4033 19.8872 17.4858 19.5095L17.108 19.3476L16.7303 21.5603C17.3779 21.8301 18.5652 22.0999 19.8064 22.0999C22.6668 22.0999 24.5556 20.7507 24.5556 18.6999C24.5556 17.5666 23.8541 16.7031 22.235 16.0015C21.2636 15.5158 20.6699 15.246 20.6699 14.7603C20.6699 14.3285 21.1557 13.8968 22.235 13.8968C23.1525 13.8968 23.8001 14.0587 24.2858 14.2745L24.5556 14.3825L24.9874 12.2777Z" fill="#3C58BF"/>
<path d="M24.9874 12.2777C24.4477 12.0618 23.5842 11.846 22.5049 11.846C19.8064 11.846 18.3493 13.1952 18.3493 15.138C18.3493 16.5952 19.2128 17.3507 20.2922 17.8364C21.3715 18.3222 21.6953 18.646 21.6953 19.0777C21.6953 19.7253 20.8318 20.0491 20.0763 20.0491C18.9969 20.0491 18.4033 19.8872 17.4858 19.5095L17.108 19.3476L16.7303 21.5603C17.3779 21.8301 18.5652 22.0999 19.8064 22.0999C22.6668 22.0999 24.5556 20.7507 24.5556 18.6999C24.5556 17.5666 23.8541 16.7031 22.235 16.0015C21.2636 15.5158 20.6699 15.246 20.6699 14.7603C20.6699 14.3285 21.1557 13.8968 22.235 13.8968C23.1525 13.8968 23.8001 14.0587 24.2858 14.2745L24.5556 14.3825L24.9874 12.2777Z" fill="#293688"/>
<path d="M29.6284 12.1699C28.9808 12.1699 28.495 12.2238 28.2252 12.8714L24.1776 21.8841H27.0919L27.6316 20.2651H31.0855L31.4093 21.8841H33.9998L31.7331 12.1699H29.6284V12.1699ZM28.3871 18.646C28.549 18.1603 29.4665 15.7857 29.4665 15.7857C29.4665 15.7857 29.6823 15.1921 29.8443 14.8143L30.0062 15.7318C30.0062 15.7318 30.5458 18.1603 30.6538 18.7H28.3871V18.646Z" fill="#3C58BF"/>
<path d="M30.276 12.1699C29.6284 12.1699 29.1427 12.2238 28.8728 12.8714L24.1776 21.8841H27.0919L27.6316 20.2651H31.0855L31.4093 21.8841H33.9998L31.7331 12.1699H30.276V12.1699ZM28.3871 18.646C28.603 18.1064 29.4665 15.7857 29.4665 15.7857C29.4665 15.7857 29.6823 15.1921 29.8443 14.8143L30.0062 15.7318C30.0062 15.7318 30.5458 18.1603 30.6538 18.7H28.3871V18.646Z" fill="#293688"/>
<path d="M7.50143 18.9697L7.23159 17.5665C6.74588 15.9475 5.1808 14.1665 3.45381 13.303L5.88238 21.9379H8.79667L13.1681 12.2237H10.2538L7.50143 18.9697Z" fill="#3C58BF"/>
<path d="M7.50143 18.9697L7.23159 17.5665C6.74588 15.9475 5.1808 14.1665 3.45381 13.303L5.88238 21.9379H8.79667L13.1681 12.2237H10.7935L7.50143 18.9697Z" fill="#293688"/>
<path d="M0 12.1699L0.485714 12.2778C3.93968 13.0873 6.31429 15.1381 7.23175 17.5667L6.26032 12.9794C6.09841 12.3318 5.6127 12.1699 5.01905 12.1699H0V12.1699Z" fill="#FFBC00"/>
<path d="M0 12.1699C3.45397 12.9794 6.31429 15.0841 7.23175 17.5127L6.31429 13.681C6.15238 13.0333 5.6127 12.6556 5.01905 12.6556L0 12.1699Z" fill="#F7981D"/>
<path d="M0 12.1699C3.45397 12.9794 6.31429 15.0841 7.23175 17.5127L6.58413 15.408C6.42222 14.7603 6.20635 14.1127 5.45079 13.8429L0 12.1699Z" fill="#ED7C00"/>
<path d="M10.1999 18.6461L8.365 16.8112L7.50151 18.862L7.28564 17.5128C6.79992 15.8937 5.23484 14.1128 3.50786 13.2493L5.93643 21.8842H8.85072L10.1999 18.6461Z" fill="#051244"/>
<path d="M15.2191 21.8844L12.8985 19.5098L12.4668 21.8844H15.2191Z" fill="#051244"/>
<path d="M21.4253 18.5382C21.6411 18.7541 21.7491 18.916 21.6951 19.1319C21.6951 19.7795 20.8316 20.1033 20.0761 20.1033C18.9967 20.1033 18.403 19.9414 17.4856 19.5636L17.1078 19.4017L16.73 21.6144C17.3776 21.8842 18.5649 22.1541 19.8062 22.1541C21.5332 22.1541 22.9364 21.6684 23.7459 20.8049L21.4253 18.5382Z" fill="#051244"/>
<path d="M24.5554 21.8841H27.0919L27.6316 20.265H31.0856L31.4094 21.8841H33.9999L33.0824 17.9444L29.8443 14.8142L30.0062 15.6777C30.0062 15.6777 30.5459 18.1063 30.6538 18.646H28.3872C28.6031 18.1063 29.4665 15.7856 29.4665 15.7856C29.4665 15.7856 29.6824 15.192 29.8443 14.8142" fill="#051244"/>
</svg>
