<svg width="18" height="15" viewBox="0 0 18 15" fill="none" xmlns="http://www.w3.org/2000/svg">
<path d="M16.9882 5.94861L17.0163 5.95464H4.97151L8.75795 2.23195C8.94337 2.0502 9.04507 1.80399 9.04507 1.54558C9.04507 1.28717 8.94337 1.04269 8.75795 0.860507L8.16878 0.282242C7.98351 0.100493 7.73664 0 7.47337 0C7.20995 0 6.96293 0.0997753 6.77766 0.281524L0.286979 6.64833C0.100979 6.8308 -0.000727786 7.07385 3.92069e-06 7.3324C-0.000727786 7.59239 0.100979 7.83558 0.286979 8.01776L6.77766 14.3851C6.96293 14.5667 7.20981 14.6667 7.47337 14.6667C7.73664 14.6667 7.98351 14.5666 8.16878 14.3851L8.75795 13.8069C8.94337 13.6254 9.04507 13.3831 9.04507 13.1247C9.04507 12.8664 8.94337 12.6369 8.75795 12.4552L4.92878 8.71174H17.0017C17.5441 8.71174 18 8.25306 18 7.72116V6.9033C18 6.3714 17.5307 5.94861 16.9882 5.94861Z" fill="black"/>
</svg>
