<svg width="21" height="21" viewBox="0 0 21 21" fill="none" xmlns="http://www.w3.org/2000/svg">
<path d="M18.8125 0H13.2624C12.2106 0 11.221 0.4095 10.4772 1.15324L0.746361 10.885C0.272139 11.3592 0 12.0155 0 12.6892C0 13.3595 0.272139 14.0157 0.746361 14.49L6.51086 20.2545C6.98426 20.7279 7.64051 21 8.31424 21C8.98447 21 9.64072 20.7279 10.115 20.2536L19.8467 10.5219C20.5905 9.77899 21 8.78936 21 7.73764V2.18749C21 0.980889 20.0191 0 18.8125 0ZM16.1875 7.00001C14.9809 7.00001 14 6.01912 14 4.81253C14 3.60589 14.9809 2.62504 16.1875 2.62504C17.3941 2.62504 18.375 3.60589 18.375 4.81249C18.375 6.01912 17.3941 7.00001 16.1875 7.00001Z" fill="#62AE2F"/>
</svg>
