<svg width="249" height="240" viewBox="0 0 249 240" fill="none" xmlns="http://www.w3.org/2000/svg">
<path d="M174.903 207.001C214.725 192.658 227.837 156.754 229.414 140.595C230.136 111.406 218.995 85.3016 213.335 75.8978C192.813 38.5541 155.012 22.6004 138.676 19.2914C88.1693 10.8076 53.3638 41.0833 42.2743 57.2816C22.3053 82.7711 15.0007 120.606 13.8446 136.337C13.9425 190.936 61.8093 211.743 85.7305 215.322C125.722 223.414 161.842 213.146 174.903 207.001Z" fill="#0ECB62"/>
<g filter="url(#filter0_d)">
<path d="M108.31 76.1079H100.799V79.8848H108.31V76.1079Z" fill="white"/>
<path d="M108.31 83.6618H100.799V87.4388H108.31V83.6618Z" fill="white"/>
<path d="M108.31 91.2157H100.799V94.9927H108.31V91.2157Z" fill="white"/>
<path d="M134.598 77.9964H130.843C130.842 78.9977 130.446 79.9577 129.742 80.6658C129.038 81.3738 128.083 81.7721 127.088 81.7733V85.5503C129.079 85.548 130.988 84.7515 132.396 83.3353C133.804 81.9192 134.596 79.9991 134.598 77.9964Z" fill="white"/>
<path d="M143.987 87.4388V83.6618C142.992 83.6606 142.037 83.2623 141.333 82.5542C140.629 81.8462 140.233 80.8862 140.232 79.8848H136.476C136.478 81.8876 137.27 83.8076 138.679 85.2238C140.087 86.6399 141.996 87.4365 143.987 87.4388Z" fill="white"/>
<path d="M163.701 169.643C160.532 170.222 157.298 170.368 154.089 170.075L121.44 167.089C120.915 167.041 120.429 166.792 120.083 166.392C119.736 165.993 119.556 165.475 119.58 164.945C119.604 164.416 119.83 163.916 120.21 163.549C120.591 163.183 121.098 162.978 121.625 162.978H146.804C148.049 162.976 149.242 162.477 150.123 161.591C151.003 160.706 151.497 159.505 151.498 158.252V158.208C151.496 157.216 151.176 156.251 150.585 155.456L146.286 149.693C146.013 149.326 145.866 148.881 145.865 148.423V148.099C145.865 147.681 145.988 147.271 146.22 146.923C146.451 146.575 146.78 146.303 147.165 146.143C147.549 145.983 147.973 145.941 148.381 146.023C148.789 146.104 149.165 146.306 149.459 146.602L157.681 154.871C157.856 155.046 158.063 155.186 158.29 155.28C158.518 155.375 158.762 155.424 159.009 155.424H179.664V151.647H159.787L152.115 143.931C151.922 143.737 151.716 143.557 151.498 143.392V100.658C151.498 100.157 151.3 99.6769 150.948 99.3228C150.596 98.9686 150.118 98.7697 149.62 98.7697H147.743V93.1042H150.559C152.302 93.1042 153.974 92.4078 155.206 91.1683C156.439 89.9287 157.131 88.2475 157.131 86.4945C157.131 84.7415 156.439 83.0603 155.206 81.8208C153.974 80.5812 152.302 79.8848 150.559 79.8848H150.365C151.305 78.7519 151.789 77.3056 151.72 75.8316C151.651 74.3576 151.035 72.9631 149.994 71.9237C148.952 70.8842 147.561 70.2754 146.095 70.2174C144.629 70.1595 143.195 70.6566 142.075 71.6107C141.898 69.7401 141.033 68.0033 139.651 66.7393C138.268 65.4754 136.467 64.775 134.598 64.775C132.73 64.775 130.929 65.4754 129.546 66.7393C128.164 68.0033 127.299 69.7401 127.122 71.6107C126.002 70.6566 124.568 70.1595 123.102 70.2174C121.636 70.2754 120.245 70.8842 119.203 71.9237C118.162 72.9631 117.546 74.3576 117.477 75.8316C117.408 77.3056 117.892 78.7519 118.832 79.8848H118.638C117.663 79.8839 116.701 80.1023 115.821 80.5238V72.3309C115.821 69.3258 114.634 66.4437 112.521 64.3187C110.408 62.1938 107.543 61 104.555 61C101.567 61 98.701 62.1938 96.5882 64.3187C94.4753 66.4437 93.2883 69.3258 93.2883 72.3309V98.7697H91.4106C90.9126 98.7697 90.4349 98.9686 90.0828 99.3228C89.7307 99.6769 89.5328 100.157 89.5328 100.658V108.962L79.4496 117.655H67V121.431H80.1441C80.5924 121.431 81.0258 121.27 81.3661 120.977L92.2494 111.595C93.3683 110.631 94.7929 110.101 96.2661 110.101C96.42 110.101 96.5703 110.146 96.6982 110.232C96.826 110.318 96.9257 110.441 96.9845 110.583C97.0434 110.726 97.0588 110.884 97.0287 111.035C96.9987 111.187 96.9246 111.326 96.8159 111.436L90.0828 118.208C89.8201 118.472 89.6413 118.808 89.5688 119.175C89.4964 119.541 89.5336 119.921 89.6757 120.266C89.8178 120.611 90.0585 120.906 90.3673 121.113C90.6761 121.321 91.0392 121.431 91.4106 121.431H111.127C111.376 121.431 111.615 121.531 111.791 121.708C111.967 121.885 112.066 122.125 112.066 122.376C112.066 122.626 111.967 122.866 111.791 123.043C111.615 123.22 111.376 123.32 111.127 123.32H97.0438C96.5458 123.32 96.0681 123.519 95.716 123.873C95.3639 124.227 95.166 124.708 95.166 125.208C95.166 125.709 95.3639 126.19 95.716 126.544C96.0681 126.898 96.5458 127.097 97.0438 127.097H116.76C117.009 127.097 117.248 127.196 117.424 127.373C117.6 127.551 117.699 127.791 117.699 128.041C117.699 128.292 117.6 128.532 117.424 128.709C117.248 128.886 117.009 128.985 116.76 128.985H97.0438C96.5458 128.985 96.0681 129.184 95.716 129.539C95.3639 129.893 95.166 130.373 95.166 130.874C95.166 131.375 95.3639 131.855 95.716 132.209C96.0681 132.563 96.5458 132.762 97.0438 132.762H113.005C113.254 132.762 113.492 132.862 113.668 133.039C113.844 133.216 113.943 133.456 113.943 133.707C113.943 133.957 113.844 134.197 113.668 134.374C113.492 134.551 113.254 134.651 113.005 134.651H97.0438C96.5458 134.651 96.0681 134.85 95.716 135.204C95.3639 135.558 95.166 136.038 95.166 136.539C95.166 137.04 95.3639 137.521 95.716 137.875C96.0681 138.229 96.5458 138.428 97.0438 138.428H106.315C106.344 138.429 106.371 138.441 106.392 138.462C106.412 138.482 106.425 138.509 106.426 138.538C106.428 138.567 106.419 138.596 106.401 138.619C106.383 138.642 106.358 138.657 106.329 138.662L93.4352 140.283L80.6605 136.612C80.4926 136.564 80.3188 136.539 80.1441 136.539H67V140.316H79.8813L89.5328 143.09V161.09H89.5373C89.5355 161.338 89.5827 161.584 89.6762 161.813C89.7696 162.043 89.9075 162.252 90.0817 162.427C90.256 162.603 90.4632 162.742 90.6913 162.837C90.9194 162.931 91.1638 162.979 91.4106 162.978H116.197C115.881 163.819 115.762 164.723 115.851 165.618C115.939 166.513 116.233 167.375 116.707 168.137C117.182 168.9 117.826 169.541 118.588 170.012C119.35 170.482 120.21 170.77 121.1 170.851L153.749 173.837C154.937 173.946 156.127 174 157.319 174C159.685 174 162.046 173.786 164.373 173.36L180 170.503L179.328 166.787L163.701 169.643ZM112.066 91.2157C112.066 90.715 112.264 90.235 112.616 89.881C112.968 89.527 113.446 89.3278 113.943 89.3273H117.699C119.69 89.3295 121.599 90.1261 123.007 91.5422C124.416 92.9584 125.208 94.8784 125.21 96.8812C125.209 97.3819 125.011 97.8619 124.659 98.2159C124.307 98.57 123.83 98.7691 123.332 98.7697H119.577C117.585 98.7674 115.676 97.9708 114.268 96.5547C112.86 95.1385 112.068 93.2185 112.066 91.2157ZM118.638 83.6618H123.332C123.703 83.6618 124.067 83.5511 124.375 83.3436C124.684 83.136 124.925 82.8411 125.067 82.496C125.209 82.1509 125.246 81.7712 125.174 81.4049C125.101 81.0385 124.922 80.702 124.66 80.4379L121.843 77.6052C121.648 77.4086 121.493 77.1751 121.387 76.9182C121.281 76.6613 121.227 76.3859 121.227 76.1079C121.227 75.8298 121.281 75.5544 121.387 75.2975C121.493 75.0406 121.648 74.8072 121.843 74.6105C122.039 74.4139 122.271 74.2579 122.526 74.1515C122.782 74.0451 123.056 73.9903 123.332 73.9903C123.609 73.9903 123.882 74.0451 124.138 74.1515C124.393 74.2579 124.625 74.4139 124.821 74.6105L127.637 77.4433C127.9 77.7074 128.235 77.8873 128.599 77.9601C128.963 78.033 129.341 77.9956 129.684 77.8527C130.027 77.7097 130.32 77.4677 130.527 77.1571C130.733 76.8465 130.843 76.4814 130.843 76.1079V72.3309C130.843 71.3292 131.239 70.3685 131.943 69.6602C132.647 68.9519 133.602 68.5539 134.598 68.5539C135.594 68.5539 136.55 68.9519 137.254 69.6602C137.958 70.3685 138.354 71.3292 138.354 72.3309V76.1079C138.354 76.4814 138.464 76.8465 138.67 77.1571C138.877 77.4677 139.17 77.7097 139.513 77.8527C139.856 77.9956 140.234 78.033 140.598 77.9601C140.962 77.8873 141.297 77.7074 141.559 77.4433L144.376 74.6105C144.572 74.4139 144.804 74.2579 145.059 74.1515C145.315 74.0451 145.588 73.9903 145.865 73.9903C146.141 73.9903 146.415 74.0451 146.671 74.1515C146.926 74.2579 147.158 74.4139 147.354 74.6105C147.549 74.8072 147.704 75.0406 147.81 75.2975C147.916 75.5544 147.97 75.8298 147.97 76.1079C147.97 76.3859 147.916 76.6613 147.81 76.9182C147.704 77.1751 147.549 77.4086 147.354 77.6052L144.537 80.4379C144.274 80.702 144.096 81.0385 144.023 81.4049C143.951 81.7712 143.988 82.1509 144.13 82.496C144.272 82.8411 144.513 83.136 144.822 83.3436C145.13 83.5511 145.493 83.6618 145.865 83.6618H150.559C151.306 83.6618 152.023 83.9602 152.551 84.4915C153.079 85.0227 153.376 85.7432 153.376 86.4945C153.376 87.2458 153.079 87.9663 152.551 88.4976C152.023 89.0288 151.306 89.3273 150.559 89.3273H145.865C145.367 89.3273 144.889 89.5262 144.537 89.8804C144.185 90.2345 143.987 90.7149 143.987 91.2157V92.2216C141.796 90.2425 138.92 89.2073 135.978 89.3384C133.036 89.4695 130.263 90.7565 128.255 92.9227C127.45 90.7596 126.008 88.895 124.122 87.5776C122.236 86.2603 119.995 85.5531 117.699 85.5503H115.985C116.18 84.9987 116.539 84.5211 117.014 84.183C117.489 83.8449 118.056 83.6628 118.638 83.6618ZM143.749 98.7697H129.203C129.619 97.1475 130.559 95.7104 131.876 94.6843C133.192 93.6582 134.811 93.1013 136.476 93.1013C138.142 93.1013 139.76 93.6582 141.077 94.6843C142.393 95.7104 143.334 97.1475 143.749 98.7697ZM97.0438 72.3309C97.0438 70.3275 97.8351 68.4061 99.2437 66.9895C100.652 65.5728 102.563 64.777 104.555 64.777C106.547 64.777 108.457 65.5728 109.866 66.9895C111.274 68.4061 112.066 70.3275 112.066 72.3309V85.8751C110.968 86.2667 110.018 86.9903 109.346 87.9465C108.673 88.9026 108.312 90.0446 108.31 91.2157C108.308 94.0049 109.333 96.6959 111.188 98.7697H97.0438V72.3309ZM100.799 102.547H104.555V117.655H100.799V102.547ZM96.2661 106.324C95.256 106.324 94.2518 106.48 93.2883 106.785V102.547H97.0438V106.396C96.7871 106.349 96.5269 106.325 96.2661 106.324ZM97.0438 116.548V117.655H95.9436L97.0438 116.548ZM100.799 143.164L104.555 142.692V156.53L100.799 152.753V143.164ZM93.5211 144.079L97.0438 143.636V152.753L93.2883 156.53V144.093C93.3661 144.093 93.4439 144.088 93.5211 144.079ZM95.9436 159.201L98.9215 156.206L101.899 159.201H95.9436ZM108.31 141.878C108.882 141.532 109.355 141.044 109.684 140.46C110.013 139.876 110.187 139.216 110.188 138.545C110.188 138.506 110.188 138.467 110.186 138.427H113.005C113.707 138.427 114.4 138.268 115.033 137.963C115.667 137.657 116.224 137.213 116.664 136.662C117.103 136.112 117.415 135.469 117.575 134.781C117.735 134.093 117.74 133.378 117.589 132.688C118.744 132.48 119.779 131.845 120.491 130.907C121.203 129.969 121.54 128.798 121.436 127.623C121.332 126.448 120.795 125.354 119.929 124.558C119.064 123.761 117.933 123.32 116.76 123.32H115.727C115.866 122.634 115.851 121.926 115.684 121.246C115.517 120.567 115.202 119.933 114.762 119.391C114.322 118.848 113.767 118.411 113.139 118.111C112.51 117.811 111.823 117.655 111.127 117.655H108.31V102.547H147.743V142.211C146.23 142.272 144.799 142.918 143.749 144.016C142.699 145.113 142.111 146.577 142.109 148.099V148.423C142.112 149.699 142.524 150.939 143.283 151.96L147.582 157.722C147.686 157.863 147.743 158.033 147.743 158.208V158.252C147.744 158.503 147.645 158.744 147.469 158.922C147.293 159.1 147.053 159.2 146.804 159.201H108.31V141.878Z" fill="white"/>
</g>
<path d="M19.0767 90.8559C19.4243 82.0153 22.9317 63.2984 34.1797 59.1558C29.8376 64.2637 20.7381 77.7548 19.0767 90.8559Z" fill="#0ECB62"/>
<path d="M225.216 169C221.29 178.732 208.399 201.694 188.247 215.683C198.13 211.439 219.361 196.161 225.216 169Z" fill="#40D683"/>
<defs>
<filter id="filter0_d" x="55" y="53" width="137" height="137" filterUnits="userSpaceOnUse" color-interpolation-filters="sRGB">
<feFlood flood-opacity="0" result="BackgroundImageFix"/>
<feColorMatrix in="SourceAlpha" type="matrix" values="0 0 0 0 0 0 0 0 0 0 0 0 0 0 0 0 0 0 127 0"/>
<feOffset dy="4"/>
<feGaussianBlur stdDeviation="6"/>
<feColorMatrix type="matrix" values="0 0 0 0 0 0 0 0 0 0 0 0 0 0 0 0 0 0 0.25 0"/>
<feBlend mode="normal" in2="BackgroundImageFix" result="effect1_dropShadow"/>
<feBlend mode="normal" in="SourceGraphic" in2="effect1_dropShadow" result="shape"/>
</filter>
</defs>
</svg>
