<svg width="228" height="203" viewBox="0 0 228 203" fill="none" xmlns="http://www.w3.org/2000/svg">
<path d="M51.204 25.0587C14.804 46.6587 8.70398 84.392 10.204 100.559C15.004 129.359 30.8706 152.892 38.204 161.059C65.404 193.859 105.537 202.392 122.204 202.559C173.404 201.359 201.871 165.059 209.704 147.059C224.504 118.259 224.537 79.7253 222.704 64.0586C212.304 10.4586 161.371 -0.941346 137.204 0.0586605C96.404 -0.341339 62.8706 16.5587 51.204 25.0587Z" fill="#0ECB62"/>
<g filter="url(#filter0_d)">
<path d="M141.855 44H92.1445C88.205 44 85 47.1617 85 51.048V150.952C85 154.838 88.205 158 92.1445 158H142.255C145.974 158 149 155.015 149 151.346V51.048C149 47.1617 145.795 44 141.855 44ZM92.1445 48.4531H141.855C143.306 48.4531 144.486 49.6172 144.486 51.048V54.7539H127.203C125.957 54.7539 124.946 55.7507 124.946 56.9804C124.946 58.2102 125.957 59.207 127.203 59.207H144.486V135.891H89.5141V59.207H106.797C108.043 59.207 109.054 58.2102 109.054 56.9804C109.054 55.7507 108.043 54.7539 106.797 54.7539H89.5141V51.048C89.5141 49.6172 90.6941 48.4531 92.1445 48.4531ZM144.486 151.346C144.486 152.56 143.485 153.547 142.255 153.547H92.1445C90.6941 153.547 89.5141 152.383 89.5141 150.952V140.344H144.486V151.346H144.486Z" fill="white"/>
<path d="M114.957 57.8314C115.313 58.6884 116.212 59.2527 117.151 59.2043C118.08 59.1567 118.904 58.535 119.189 57.6613C119.479 56.7745 119.162 55.7823 118.414 55.2145C117.656 54.6392 116.583 54.6065 115.788 55.1286C114.904 55.7088 114.549 56.8653 114.957 57.8314Z" fill="white"/>
<path d="M114.589 149.172H119.41C120.657 149.172 121.668 148.175 121.668 146.946C121.668 145.716 120.657 144.719 119.41 144.719H114.589C113.343 144.719 112.332 145.716 112.332 146.946C112.332 148.175 113.343 149.172 114.589 149.172Z" fill="white"/>
<path d="M134.257 114.276H99.7432C98.4969 114.276 97.4861 115.273 97.4861 116.502V126.588C97.4861 127.818 98.4969 128.815 99.7432 128.815H134.257C135.503 128.815 136.514 127.818 136.514 126.588V116.502C136.514 115.273 135.503 114.276 134.257 114.276ZM131.999 124.362H102V118.729H131.999V124.362Z" fill="white"/>
<path d="M121.355 100.781C121.486 100.804 121.617 100.815 121.745 100.815C122.822 100.815 123.775 100.053 123.966 98.9708L124.767 94.4444C124.981 93.2332 124.16 92.0796 122.932 91.8683C121.704 91.6568 120.534 92.4675 120.32 93.6789L119.519 98.2053C119.305 99.4166 120.127 100.57 121.355 100.781Z" fill="white"/>
<path d="M110.033 98.9708C110.225 100.053 111.178 100.815 112.254 100.815C112.383 100.815 112.514 100.804 112.645 100.781C113.873 100.57 114.695 99.4166 114.481 98.2053L113.68 93.6789C113.465 92.4675 112.297 91.6561 111.068 91.8683C109.84 92.0798 109.018 93.2332 109.233 94.4444L110.033 98.9708Z" fill="white"/>
<path d="M99.4924 83.8059C98.2461 83.8059 97.2354 84.8027 97.2354 86.0325C97.2354 87.0754 97.9624 87.9506 98.9435 88.1927L101.771 107.101C101.934 108.194 102.884 109.003 104.003 109.003H129.997C131.116 109.003 132.066 108.194 132.23 107.101L135.057 88.1927C136.038 87.9509 136.765 87.0754 136.765 86.0325C136.765 84.8027 135.754 83.8059 134.508 83.8059H99.4924ZM130.483 88.259L128.048 104.55H105.952L103.516 88.259H130.483Z" fill="white"/>
<path d="M115.786 70.569L106.432 76.4535C105.381 77.1146 105.072 78.4911 105.742 79.528C106.412 80.5647 107.807 80.8695 108.859 80.2082L117 75.0871L125.141 80.2082C125.517 80.4449 125.937 80.5578 126.352 80.5578C127.098 80.5578 127.827 80.194 128.257 79.528C128.928 78.4911 128.619 77.1146 127.568 76.4535L118.213 70.569C117.473 70.1034 116.526 70.1034 115.786 70.569Z" fill="white"/>
</g>
<path d="M0.499973 79C-2.73883e-05 70.1667 1.69997 51.2 12.5 46C8.66663 51.5 0.899951 65.8 0.499973 79Z" fill="#0ECB62"/>
<path d="M189 3.5C197.833 9.16667 218 26.1 228 48.5C225.667 38 214.6 14.3 189 3.5Z" fill="#40D683"/>
<defs>
<filter id="filter0_d" x="73" y="36" width="88" height="138" filterUnits="userSpaceOnUse" color-interpolation-filters="sRGB">
<feFlood flood-opacity="0" result="BackgroundImageFix"/>
<feColorMatrix in="SourceAlpha" type="matrix" values="0 0 0 0 0 0 0 0 0 0 0 0 0 0 0 0 0 0 127 0"/>
<feOffset dy="4"/>
<feGaussianBlur stdDeviation="6"/>
<feColorMatrix type="matrix" values="0 0 0 0 0 0 0 0 0 0 0 0 0 0 0 0 0 0 0.25 0"/>
<feBlend mode="normal" in2="BackgroundImageFix" result="effect1_dropShadow"/>
<feBlend mode="normal" in="SourceGraphic" in2="effect1_dropShadow" result="shape"/>
</filter>
</defs>
</svg>
