<svg width="248" height="238" viewBox="0 0 248 238" fill="none" xmlns="http://www.w3.org/2000/svg">
<path d="M73.0075 32.0806C33.3081 46.7598 20.5012 82.7736 19.0602 98.9457C18.586 128.139 29.947 154.149 35.6868 163.504C56.5235 200.673 94.459 216.306 110.822 219.477C161.399 227.533 195.947 196.964 206.899 180.672C226.651 155.014 233.635 117.119 234.658 101.379C234.098 46.7821 186.057 26.3809 162.106 23.0049C122.048 15.2513 86.0161 25.8247 73.0075 32.0806Z" fill="#0ECB62"/>
<g filter="url(#filter0_d)">
<path d="M176.312 151.651H172.938V143.279C173.869 143.279 174.625 142.529 174.625 141.605C174.625 140.68 173.869 139.93 172.938 139.93V107.215C174.953 106.055 176.312 103.892 176.312 101.419V88.0155C176.312 85.25 174.045 83 171.258 83H76.7422C73.9551 83 71.6875 85.25 71.6875 88.0155V101.419C71.6875 103.892 73.047 106.055 75.0625 107.215V139.93C74.1306 139.93 73.375 140.68 73.375 141.605C73.375 142.529 74.1306 143.279 75.0625 143.279V151.651H71.6875C70.7556 151.651 70 152.401 70 153.326C70 154.25 70.7556 155 71.6875 155H176.312C177.244 155 178 154.25 178 153.326C178 152.401 177.244 151.651 176.312 151.651ZM149.312 139.93V131.558H157.75V139.93H149.312ZM125.688 139.93V119.837H145.938V139.93H125.688ZM102.062 139.93V131.558H122.312V139.93H102.062ZM90.25 139.93V119.837H98.6875V139.93H90.25ZM122.312 119.837V128.209H102.062V119.837H122.312ZM157.75 119.837V128.209H149.312V119.837H157.75ZM169.562 119.837V128.209H161.125V119.837H169.562ZM161.125 131.558H169.562V139.93H161.125V131.558ZM169.562 104.767C167.702 104.767 166.188 103.265 166.188 101.419H172.938C172.938 103.265 171.423 104.767 169.562 104.767ZM75.0625 101.419H81.8125C81.8125 103.265 80.2984 104.767 78.4375 104.767C76.5766 104.767 75.0625 103.265 75.0625 101.419ZM156.062 98.0698V86.3488H162.812V98.0698H156.062ZM152.688 98.0698H145.938V86.3488H152.688V98.0698ZM142.562 98.0698H135.812V86.3488H142.562V98.0698ZM132.438 98.0698H125.688V86.3488H132.438V98.0698ZM122.312 98.0698H115.562V86.3488H122.312V98.0698ZM112.188 98.0698H105.438V86.3488H112.188V98.0698ZM102.062 98.0698H95.3125V86.3488H102.062V98.0698ZM91.9375 98.0698H85.1875V86.3488H91.9375V98.0698ZM91.9375 101.419C91.9375 103.265 90.4234 104.767 88.5625 104.767C86.7016 104.767 85.1875 103.265 85.1875 101.419H91.9375ZM102.062 101.419C102.062 103.265 100.548 104.767 98.6875 104.767C96.8266 104.767 95.3125 103.265 95.3125 101.419H102.062ZM112.188 101.419C112.188 103.265 110.673 104.767 108.812 104.767C106.952 104.767 105.438 103.265 105.438 101.419H112.188ZM122.312 101.419C122.312 103.265 120.798 104.767 118.938 104.767C117.077 104.767 115.562 103.265 115.562 101.419H122.312ZM132.438 101.419C132.438 103.265 130.923 104.767 129.062 104.767C127.202 104.767 125.688 103.265 125.688 101.419H132.438ZM142.562 101.419C142.562 103.265 141.048 104.767 139.188 104.767C137.327 104.767 135.812 103.265 135.812 101.419H142.562ZM152.688 101.419C152.688 103.265 151.173 104.767 149.312 104.767C147.452 104.767 145.938 103.265 145.938 101.419H152.688ZM162.812 101.419C162.812 103.265 161.298 104.767 159.438 104.767C157.577 104.767 156.062 103.265 156.062 101.419H162.812ZM172.938 88.0155V98.0698H166.188V86.3488H171.258C172.184 86.3488 172.938 87.0965 172.938 88.0155ZM76.7422 86.3488H81.8125V98.0698H75.0625V88.0155C75.0625 87.0965 75.816 86.3488 76.7422 86.3488ZM83.5 105.842C84.7378 107.235 86.5478 108.116 88.5625 108.116C90.5772 108.116 92.3872 107.235 93.625 105.842C94.8628 107.235 96.6728 108.116 98.6875 108.116C100.702 108.116 102.512 107.235 103.75 105.842C104.988 107.235 106.798 108.116 108.812 108.116C110.827 108.116 112.637 107.235 113.875 105.842C115.113 107.235 116.923 108.116 118.938 108.116C120.952 108.116 122.762 107.235 124 105.842C125.238 107.235 127.048 108.116 129.062 108.116C131.077 108.116 132.887 107.235 134.125 105.842C135.363 107.235 137.173 108.116 139.188 108.116C141.202 108.116 143.012 107.235 144.25 105.842C145.488 107.235 147.298 108.116 149.312 108.116C151.327 108.116 153.137 107.235 154.375 105.842C155.613 107.235 157.423 108.116 159.438 108.116C161.452 108.116 163.262 107.235 164.5 105.842C165.738 107.235 167.548 108.116 169.562 108.116V116.488H78.4375V108.116C80.4522 108.116 82.2622 107.235 83.5 105.842ZM78.4375 119.837H86.875V139.93H78.4375V119.837ZM78.4375 143.279H169.562V151.651H78.4375V143.279Z" fill="white"/>
<path d="M131.594 129.884C129.268 129.884 127.375 131.762 127.375 134.07C127.375 136.378 129.268 138.256 131.594 138.256C133.92 138.256 135.812 136.378 135.812 134.07C135.812 131.762 133.92 129.884 131.594 129.884ZM131.594 134.907C131.128 134.907 130.75 134.531 130.75 134.07C130.75 133.608 131.128 133.233 131.594 133.233C132.059 133.233 132.438 133.608 132.438 134.07C132.438 134.531 132.059 134.907 131.594 134.907Z" fill="white"/>
<path d="M135.812 134.07C135.812 136.378 137.705 138.256 140.031 138.256C142.357 138.256 144.25 136.378 144.25 134.07C144.25 131.762 142.357 129.884 140.031 129.884C137.705 129.884 135.812 131.762 135.812 134.07ZM140.031 133.233C140.497 133.233 140.875 133.608 140.875 134.07C140.875 134.531 140.497 134.907 140.031 134.907C139.566 134.907 139.188 134.531 139.188 134.07C139.188 133.608 139.566 133.233 140.031 133.233Z" fill="white"/>
<path d="M135.812 125.698C135.812 123.389 133.92 121.512 131.594 121.512C129.268 121.512 127.375 123.389 127.375 125.698C127.375 128.006 129.268 129.884 131.594 129.884C133.92 129.884 135.812 128.006 135.812 125.698ZM131.594 126.535C131.128 126.535 130.75 126.159 130.75 125.698C130.75 125.236 131.128 124.86 131.594 124.86C132.059 124.86 132.438 125.236 132.438 125.698C132.438 126.159 132.059 126.535 131.594 126.535Z" fill="white"/>
<path d="M144.25 125.698C144.25 123.389 142.357 121.512 140.031 121.512C137.705 121.512 135.812 123.389 135.812 125.698C135.812 128.006 137.705 129.884 140.031 129.884C142.357 129.884 144.25 128.006 144.25 125.698ZM140.031 126.535C139.566 126.535 139.188 126.159 139.188 125.698C139.188 125.236 139.566 124.86 140.031 124.86C140.497 124.86 140.875 125.236 140.875 125.698C140.875 126.159 140.497 126.535 140.031 126.535Z" fill="white"/>
<path d="M107.125 126.535C108.057 126.535 108.812 125.785 108.812 124.86V123.186C108.812 122.261 108.057 121.512 107.125 121.512C106.193 121.512 105.438 122.261 105.438 123.186V124.86C105.438 125.785 106.193 126.535 107.125 126.535Z" fill="white"/>
<path d="M112.188 126.535C113.119 126.535 113.875 125.785 113.875 124.86V123.186C113.875 122.261 113.119 121.512 112.188 121.512C111.256 121.512 110.5 122.261 110.5 123.186V124.86C110.5 125.785 111.256 126.535 112.188 126.535Z" fill="white"/>
<path d="M117.25 126.535C118.182 126.535 118.938 125.785 118.938 124.86V123.186C118.938 122.261 118.182 121.512 117.25 121.512C116.318 121.512 115.562 122.261 115.562 123.186V124.86C115.562 125.785 116.318 126.535 117.25 126.535Z" fill="white"/>
<path d="M107.125 133.233C106.193 133.233 105.438 133.982 105.438 134.907V136.581C105.438 137.506 106.193 138.256 107.125 138.256C108.057 138.256 108.812 137.506 108.812 136.581V134.907C108.812 133.982 108.057 133.233 107.125 133.233Z" fill="white"/>
<path d="M112.188 133.233C111.256 133.233 110.5 133.982 110.5 134.907V136.581C110.5 137.506 111.256 138.256 112.188 138.256C113.119 138.256 113.875 137.506 113.875 136.581V134.907C113.875 133.982 113.119 133.233 112.188 133.233Z" fill="white"/>
<path d="M117.25 133.233C116.318 133.233 115.562 133.982 115.562 134.907V136.581C115.562 137.506 116.318 138.256 117.25 138.256C118.182 138.256 118.938 137.506 118.938 136.581V134.907C118.938 133.982 118.182 133.233 117.25 133.233Z" fill="white"/>
<path d="M95.3125 123.186H93.625C92.6931 123.186 91.9375 123.936 91.9375 124.86C91.9375 125.785 92.6931 126.535 93.625 126.535H95.3125C96.2444 126.535 97 125.785 97 124.86C97 123.936 96.2444 123.186 95.3125 123.186Z" fill="white"/>
<path d="M95.3125 128.209H93.625C92.6931 128.209 91.9375 128.959 91.9375 129.884C91.9375 130.808 92.6931 131.558 93.625 131.558H95.3125C96.2444 131.558 97 130.808 97 129.884C97 128.959 96.2444 128.209 95.3125 128.209Z" fill="white"/>
<path d="M95.3125 133.233H93.625C92.6931 133.233 91.9375 133.982 91.9375 134.907C91.9375 135.832 92.6931 136.581 93.625 136.581H95.3125C96.2444 136.581 97 135.832 97 134.907C97 133.982 96.2444 133.233 95.3125 133.233Z" fill="white"/>
<path d="M153.531 126.535C154.927 126.535 156.062 125.408 156.062 124.023C156.062 122.638 154.927 121.512 153.531 121.512C152.135 121.512 151 122.638 151 124.023C151 125.408 152.135 126.535 153.531 126.535ZM153.531 123.186C153.997 123.186 154.375 123.562 154.375 124.023C154.375 124.485 153.997 124.86 153.531 124.86C153.066 124.86 152.688 124.485 152.688 124.023C152.688 123.562 153.066 123.186 153.531 123.186Z" fill="white"/>
<path d="M165.344 133.233C163.948 133.233 162.812 134.359 162.812 135.744C162.812 137.129 163.948 138.256 165.344 138.256C166.74 138.256 167.875 137.129 167.875 135.744C167.875 134.359 166.74 133.233 165.344 133.233ZM165.344 136.581C164.878 136.581 164.5 136.206 164.5 135.744C164.5 135.282 164.878 134.907 165.344 134.907C165.809 134.907 166.188 135.282 166.188 135.744C166.188 136.206 165.809 136.581 165.344 136.581Z" fill="white"/>
</g>
<path d="M59.4181 200.494C51.5209 196.505 35.9525 185.539 36.857 173.587C39.6995 179.659 48.1912 193.54 59.4181 200.494Z" fill="#0ECB62"/>
<path d="M166 19.1838C176.343 20.9643 201.511 28.7101 219.443 45.4494C213.205 36.6863 193.785 19.1648 166 19.1838Z" fill="#40D683"/>
<defs>
<filter id="filter0_d" x="58" y="75" width="132" height="96" filterUnits="userSpaceOnUse" color-interpolation-filters="sRGB">
<feFlood flood-opacity="0" result="BackgroundImageFix"/>
<feColorMatrix in="SourceAlpha" type="matrix" values="0 0 0 0 0 0 0 0 0 0 0 0 0 0 0 0 0 0 127 0"/>
<feOffset dy="4"/>
<feGaussianBlur stdDeviation="6"/>
<feColorMatrix type="matrix" values="0 0 0 0 0 0 0 0 0 0 0 0 0 0 0 0 0 0 0.25 0"/>
<feBlend mode="normal" in2="BackgroundImageFix" result="effect1_dropShadow"/>
<feBlend mode="normal" in="SourceGraphic" in2="effect1_dropShadow" result="shape"/>
</filter>
</defs>
</svg>
