<svg width="21" height="27" viewBox="0 0 21 27" fill="none" xmlns="http://www.w3.org/2000/svg">
<path d="M10.5 0C4.71026 0 0 4.5401 0 10.1207C0 10.7852 0.268212 11.4098 0.755694 11.8794C1.24296 12.3493 1.89116 12.608 2.5806 12.608C4.0033 12.608 5.16099 11.4924 5.1612 10.1207C5.1612 8.74608 5.71643 7.45388 6.72474 6.482C7.73304 5.50992 9.07388 4.97475 10.5 4.97475C13.4439 4.97475 15.8388 7.28311 15.8388 10.1207C15.8388 12.7304 13.8132 14.8927 11.1978 15.2231L12.1505 10.6066C12.2852 9.95485 12.1484 9.29176 11.7654 8.73928C11.3824 8.18681 10.799 7.81107 10.123 7.6815C9.95652 7.64957 9.78641 7.63351 9.61779 7.63351C8.39149 7.63351 7.32784 8.47561 7.08848 9.63576L4.1187 24.0271C3.98428 24.6787 4.12105 25.3418 4.50403 25.8942C4.88701 26.4467 5.47023 26.8222 6.14621 26.9518C6.31291 26.9837 6.48281 27 6.65165 27C7.87794 27 8.94138 26.1577 9.18053 24.9975L10.1621 20.2416H10.5C16.2897 20.2416 21 15.7012 21 10.1207C21 4.5401 16.2897 0 10.5 0ZM10.5 18.6595H9.48849C9.09718 18.6595 8.76015 18.9261 8.68364 19.2962L7.57083 24.6892C7.48385 25.1115 7.09724 25.418 6.65186 25.418C6.59031 25.418 6.5279 25.412 6.46657 25.4003C6.22037 25.3531 6.00815 25.2165 5.86881 25.0155C5.72947 24.8144 5.67967 24.573 5.72861 24.3357L8.69839 9.94434C8.78558 9.52206 9.17219 9.21554 9.61779 9.21554C9.67934 9.21554 9.74153 9.22151 9.80286 9.23325C10.0491 9.28043 10.2613 9.417 10.4006 9.61826C10.5402 9.8191 10.5898 10.0605 10.5408 10.2978L9.38398 15.9037C9.33611 16.1361 9.39873 16.3769 9.55453 16.5598C9.71033 16.743 9.94327 16.849 10.1888 16.849H10.4998C14.3488 16.849 17.4803 13.8308 17.4803 10.1209C17.4803 6.41093 14.349 3.39272 10.5 3.39272C8.63556 3.39272 6.88267 4.09248 5.56427 5.36325C4.24586 6.63423 3.51988 8.32379 3.51988 10.1207C3.51988 10.6198 3.09843 11.026 2.58039 11.026C2.32949 11.026 2.09376 10.9319 1.91638 10.7609C1.73899 10.5899 1.64133 10.3627 1.64133 10.1207C1.64133 5.41248 5.61534 1.58203 10.5 1.58203C15.3847 1.58203 19.3587 5.41248 19.3587 10.1209C19.3587 14.8291 15.3847 18.6595 10.5 18.6595Z" fill="white"/>
</svg>
