<svg width="25" height="20" viewBox="0 0 25 20" fill="none" xmlns="http://www.w3.org/2000/svg">
<path d="M23.0503 1.01006C22.0927 1.68553 21.0324 2.20217 19.9103 2.54006C19.308 1.84757 18.5076 1.35675 17.6173 1.13398C16.727 0.911216 15.7898 0.967251 14.9324 1.29451C14.075 1.62177 13.3387 2.20446 12.8233 2.96377C12.3078 3.72309 12.038 4.62239 12.0503 5.54006V6.54006C10.2929 6.58562 8.55157 6.19587 6.9813 5.4055C5.41104 4.61513 4.06061 3.44869 3.05029 2.01006C3.05029 2.01006 -0.949707 11.0101 8.05029 15.0101C5.99082 16.408 3.53745 17.109 1.05029 17.0101C10.0503 22.0101 21.0503 17.0101 21.0503 5.51006C21.0494 5.23151 21.0226 4.95365 20.9703 4.68006C21.9909 3.67355 22.7111 2.40277 23.0503 1.01006Z" stroke="white" stroke-width="2" stroke-linecap="round" stroke-linejoin="round"/>
</svg>
