<svg width="150" height="115" viewBox="0 0 150 115" fill="none" xmlns="http://www.w3.org/2000/svg">
<path d="M141.214 18.704C144.361 16.5926 146.874 13.0485 148.038 8.7044C148.239 7.95381 148.133 7.15401 147.745 6.48135C147.357 5.8084 146.717 5.31739 145.966 5.11641L127.245 0.0999032C126.495 -0.101366 125.695 0.00410256 125.022 0.392579C124.349 0.781056 123.858 1.4209 123.657 2.17149C122.493 6.51768 122.947 10.8401 124.61 14.2307C115.695 15.3917 108.179 21.8411 105.803 30.7087C102.22 44.0786 93.6471 55.2522 81.6626 62.1712C73.7832 66.7205 64.8371 69.1249 55.7926 69.1249C51.2765 69.1249 46.7521 68.526 42.3453 67.3454C40.4363 66.8338 38.4749 66.5746 36.5152 66.5746C29.3829 66.5746 22.8585 69.9628 18.6954 75.3812C18.5272 75.1316 18.3526 74.8832 18.1651 74.6388C15.9435 71.7446 12.5835 69.5784 8.70427 68.5389C7.95398 68.3382 7.15446 68.4431 6.48122 68.8316C5.80827 69.2201 5.31726 69.8599 5.11628 70.6105L0.099773 89.3321C-0.101204 90.0827 0.00397222 90.8825 0.392449 91.5552C0.780926 92.2281 1.42077 92.7191 2.17136 92.9201C3.79909 93.3563 5.45583 93.5775 7.09587 93.5775C9.73054 93.5775 12.1701 93.0091 14.2411 91.9914C15.4024 100.731 21.6758 108.355 30.7086 110.775C38.9305 112.978 47.3768 114.095 55.811 114.095C72.7107 114.095 89.4231 109.603 104.142 101.105C126.528 88.1801 142.542 67.3123 149.232 42.3451C151.65 33.3194 148.191 24.0809 141.214 18.704ZM14.8124 83.2416C14.0946 85.9193 10.9935 87.7181 7.09587 87.7181C6.93122 87.7181 6.76628 87.7149 6.60105 87.7082L9.93532 75.2643C11.3808 76.0213 12.6093 77.0239 13.5175 78.2069C14.781 79.8537 15.2413 81.6417 14.8124 83.2416ZM128.875 6.60264L141.302 9.93223C139.711 12.934 137.098 14.9698 134.539 14.9698C134.131 14.9698 133.727 14.9168 133.336 14.8122C130.479 14.047 128.729 10.582 128.875 6.60264ZM143.572 40.8287C137.287 64.2838 122.243 83.8884 101.212 96.0311C87.3822 104.015 71.6832 108.236 55.8107 108.236C47.8883 108.236 39.9526 107.186 32.2247 105.115C23.3723 102.743 18.0998 93.6115 20.4717 84.7586C22.4161 77.5023 29.0129 72.4342 36.5149 72.4342C37.9628 72.4342 39.4144 72.6264 40.8289 73.0055C45.73 74.3186 50.7644 74.9845 55.7926 74.9845C65.8643 74.9845 75.8232 72.3085 84.5923 67.2458C97.9321 59.5442 107.475 47.1068 111.462 32.2251C113.406 24.9689 120.003 19.9008 127.505 19.9008C128.952 19.9008 130.403 20.0927 131.817 20.4715C131.818 20.4718 131.818 20.4718 131.819 20.4718C131.819 20.4718 131.82 20.4721 131.82 20.4721C140.672 22.8451 145.944 31.9764 143.572 40.8287Z" fill="#30302F"/>
<path d="M39.7766 77.1639C39.7751 77.1636 39.742 77.1545 39.7405 77.1543C38.1828 76.7236 36.5677 77.6382 36.1364 79.198C35.7055 80.7575 36.6204 82.3712 38.1802 82.8021C38.184 82.803 38.2048 82.8088 38.213 82.8112C38.4737 82.8833 38.7359 82.9175 38.994 82.9175C40.2772 82.9175 41.455 82.0679 41.815 80.7712C42.2483 79.2118 41.3357 77.5969 39.7766 77.1639Z" fill="#30302F"/>
<path d="M135.084 44.1469C133.569 43.5762 131.88 44.3414 131.309 45.8555C129.718 50.0775 127.763 54.1872 125.496 58.0717C124.68 59.4692 125.152 61.2633 126.55 62.0787C127.014 62.3496 127.522 62.4783 128.024 62.4783C129.031 62.4783 130.012 61.9579 130.557 61.0248C132.988 56.8582 135.086 52.4496 136.792 47.9212C137.363 46.4072 136.598 44.7173 135.084 44.1469Z" fill="#30302F"/>
<path d="M137.348 36.1456C135.788 35.7302 134.183 36.6709 133.762 38.2281C133.761 38.2322 133.754 38.2597 133.753 38.2641C133.338 39.8256 134.269 41.4162 135.829 41.8345C136.081 41.9019 136.334 41.9344 136.583 41.9344C137.878 41.9344 139.065 41.0655 139.419 39.758L139.434 39.7023C139.841 38.1411 138.907 36.5602 137.348 36.1456Z" fill="#30302F"/>
<path d="M68.3718 81.029C68.1292 79.4291 66.6365 78.3287 65.0357 78.5707C63.7692 78.7623 62.4807 78.9167 61.2069 79.0289C56.6911 79.4268 52.1211 79.3251 47.6228 78.7269C46.0188 78.5142 44.5458 79.6409 44.3325 81.2446C44.1192 82.8486 45.2465 84.3217 46.8505 84.535C49.8113 84.9287 52.8007 85.1259 55.7887 85.1259C57.7698 85.1259 59.75 85.0392 61.7208 84.8657C63.1159 84.743 64.5262 84.5739 65.9132 84.3642C67.5131 84.1219 68.6137 82.6289 68.3718 81.029Z" fill="#30302F"/>
</svg>
