<svg width="21" height="16" viewBox="0 0 21 16" fill="none" xmlns="http://www.w3.org/2000/svg">
<path d="M2.691 2.292C4.094 0.771 6.217 0 9 0H10V2.819L9.196 2.98C7.826 3.254 6.873 3.793 6.363 4.584C6.09689 5.01013 5.94597 5.49804 5.925 6H9C9.26522 6 9.51957 6.10536 9.70711 6.29289C9.89464 6.48043 10 6.73478 10 7V14C10 15.103 9.103 16 8 16H2C1.73478 16 1.48043 15.8946 1.29289 15.7071C1.10536 15.5196 1 15.2652 1 15V10L1.003 7.081C0.994001 6.97 0.804001 4.34 2.691 2.292ZM19 16H13C12.7348 16 12.4804 15.8946 12.2929 15.7071C12.1054 15.5196 12 15.2652 12 15V10L12.003 7.081C11.994 6.97 11.804 4.34 13.691 2.292C15.094 0.771 17.217 0 20 0H21V2.819L20.196 2.98C18.826 3.254 17.873 3.793 17.363 4.584C17.0969 5.01013 16.946 5.49804 16.925 6H20C20.2652 6 20.5196 6.10536 20.7071 6.29289C20.8946 6.48043 21 6.73478 21 7V14C21 15.103 20.103 16 19 16Z" fill="#3172EC"/>
</svg>
